<svg width="360" height="360" version="1.1" xmlns="http://www.w3.org/2000/svg" desc="Created with imagetracer.js version 1.2.6" ><path fill="rgb(247,247,247)" stroke="rgb(247,247,247)" stroke-width="1" opacity="1" d="M 188.5 22 Q 191.1 21.3 190 24 L 187 23.5 L 188.5 22 Z " /><path fill="rgb(247,247,247)" stroke="rgb(247,247,247)" stroke-width="1" opacity="1" d="M 207.5 24 L 208.5 26 L 207.5 24 Z " /><path fill="rgb(247,247,247)" stroke="rgb(247,247,247)" stroke-width="1" opacity="1" d="M 292.5 36 L 293.5 38 L 292.5 36 Z " /><path fill="rgb(247,247,247)" stroke="rgb(247,247,247)" stroke-width="1" opacity="1" d="M 297.5 40 L 299.5 43 L 297.5 40 Z " /><path fill="rgb(247,247,247)" stroke="rgb(247,247,247)" stroke-width="1" opacity="1" d="M 78.5 60 L 77.5 62 L 78.5 60 Z " /><path fill="rgb(247,247,247)" stroke="rgb(247,247,247)" stroke-width="1" opacity="1" d="M 317.5 60 L 319.5 63 L 317.5 60 Z " /><path fill="rgb(247,247,247)" stroke="rgb(247,247,247)" stroke-width="1" opacity="1" d="M 169 64 L 171 64.5 L 169 65.5 L 169 64 Z " /><path fill="rgb(247,247,247)" stroke="rgb(247,247,247)" stroke-width="1" opacity="1" d="M 287.5 64 L 288.5 66 L 287.5 64 Z " /><path fill="rgb(247,247,247)" stroke="rgb(247,247,247)" stroke-width="1" opacity="1" d="M 322.5 66 L 323.5 68 L 322.5 66 Z " /><path fill="rgb(247,247,247)" stroke="rgb(247,247,247)" stroke-width="1" opacity="1" d="M 294.5 71 L 295.5 73 L 294.5 71 Z " /><path fill="rgb(247,247,247)" stroke="rgb(247,247,247)" stroke-width="1" opacity="1" d="M 61.5 77 L 60.5 79 L 61.5 77 Z " /><path fill="rgb(247,247,247)" stroke="rgb(247,247,247)" stroke-width="1" opacity="1" d="M 134.5 81 L 130.5 86 L 134.5 81 Z " /><path fill="rgb(247,247,247)" stroke="rgb(247,247,247)" stroke-width="1" opacity="1" d="M 184.5 88 L 185 90 L 183 89.5 L 184.5 88 Z " /><path fill="rgb(247,247,247)" stroke="rgb(247,247,247)" stroke-width="1" opacity="1" d="M 169.5 89 L 170.5 91 Q 167.7 91.7 169.5 89 Z " /><path fill="rgb(247,247,247)" stroke="rgb(247,247,247)" stroke-width="1" opacity="1" d="M 138.5 122 Q 140.8 121.3 140 123.5 L 138.5 122 Z " /><path fill="rgb(247,247,247)" stroke="rgb(247,247,247)" stroke-width="1" opacity="1" d="M 113.5 123 Q 116.5 124.5 113.5 126 L 113.5 123 Z " /><path fill="rgb(247,247,247)" stroke="rgb(247,247,247)" stroke-width="1" opacity="1" d="M 246.5 135 L 247 137.5 L 245 136.5 L 246.5 135 Z " /><path fill="rgb(247,247,247)" stroke="rgb(247,247,247)" stroke-width="1" opacity="1" d="M 220.5 137 L 221.5 139 Q 218.7 139.7 220.5 137 Z " /><path fill="rgb(247,247,247)" stroke="rgb(247,247,247)" stroke-width="1" opacity="1" d="M 126.5 170 L 127.5 172 L 126.5 170 Z " /><path fill="rgb(247,247,247)" stroke="rgb(247,247,247)" stroke-width="1" opacity="1" d="M 336 170 Q 338.7 168.9 338 171.5 L 336 172.5 L 336 170 Z " /><path fill="rgb(247,247,247)" stroke="rgb(247,247,247)" stroke-width="1" opacity="1" d="M 183.5 171 Q 185.8 170.3 185 172.5 L 183.5 171 Z " /><path fill="rgb(247,247,247)" stroke="rgb(247,247,247)" stroke-width="1" opacity="1" d="M 131.5 176 L 134.5 180 L 131.5 176 Z " /><path fill="rgb(247,247,247)" stroke="rgb(247,247,247)" stroke-width="1" opacity="1" d="M 139.5 183 L 140.5 185 L 139.5 183 Z " /><path fill="rgb(247,247,247)" stroke="rgb(247,247,247)" stroke-width="1" opacity="1" d="M 23.5 187 L 24 190 Q 21.3 191.1 22 188.5 L 23.5 187 Z " /><path fill="rgb(247,247,247)" stroke="rgb(247,247,247)" stroke-width="1" opacity="1" d="M 186.5 235 Q 189.1 234.3 188 237 L 184 236.5 L 186.5 235 Z " /><path fill="rgb(247,247,247)" stroke="rgb(247,247,247)" stroke-width="1" opacity="1" d="M 147.5 239 L 148.5 241 L 147.5 239 Z " /><path fill="rgb(247,247,247)" stroke="rgb(247,247,247)" stroke-width="1" opacity="1" d="M 86.5 244 L 84.5 247 L 86.5 244 Z " /><path fill="rgb(247,247,247)" stroke="rgb(247,247,247)" stroke-width="1" opacity="1" d="M 73.5 258 L 72.5 260 L 73.5 258 Z " /><path fill="rgb(247,247,247)" stroke="rgb(247,247,247)" stroke-width="1" opacity="1" d="M 251.5 260 L 252.5 262 L 251.5 260 Z " /><path fill="rgb(247,247,247)" stroke="rgb(247,247,247)" stroke-width="1" opacity="1" d="M 69.5 261 L 68.5 263 L 69.5 261 Z " /><path fill="rgb(247,247,247)" stroke="rgb(247,247,247)" stroke-width="1" opacity="1" d="M 103.5 263 L 101.5 266 L 103.5 263 Z " /><path fill="rgb(247,247,247)" stroke="rgb(247,247,247)" stroke-width="1" opacity="1" d="M 96.5 268 L 95.5 270 L 96.5 268 Z " /><path fill="rgb(247,247,247)" stroke="rgb(247,247,247)" stroke-width="1" opacity="1" d="M 263.5 270 L 268.5 276 L 263.5 270 Z " /><path fill="rgb(247,247,247)" stroke="rgb(247,247,247)" stroke-width="1" opacity="1" d="M 89.5 277 L 87.5 280 L 89.5 277 Z " /><path fill="rgb(247,247,247)" stroke="rgb(247,247,247)" stroke-width="1" opacity="1" d="M 84.5 283 L 83.5 285 L 84.5 283 Z " /><path fill="rgb(247,247,247)" stroke="rgb(247,247,247)" stroke-width="1" opacity="1" d="M 283.5 295 L 284 296.5 L 282 297.5 L 283.5 295 Z " /><path fill="rgb(247,247,247)" stroke="rgb(247,247,247)" stroke-width="1" opacity="1" d="M 40.5 297 L 42.5 300 L 40.5 297 Z " /><path fill="rgb(247,247,247)" stroke="rgb(247,247,247)" stroke-width="1" opacity="1" d="M 51.5 309 L 52.5 311 L 51.5 309 Z " /><path fill="rgb(247,247,247)" stroke="rgb(247,247,247)" stroke-width="1" opacity="1" d="M 60.5 317 L 61.5 319 L 60.5 317 Z " /><path fill="rgb(247,247,247)" stroke="rgb(247,247,247)" stroke-width="1" opacity="1" d="M 66.5 322 L 67.5 324 L 66.5 322 Z " /><path fill="rgb(247,247,247)" stroke="rgb(247,247,247)" stroke-width="1" opacity="1" d="M 221.5 329 L 222.5 331 L 221.5 329 Z " /><path fill="rgb(208,208,208)" stroke="rgb(208,208,208)" stroke-width="1" opacity="1" d="M 190.5 22 L 193 22.5 L 190.5 23 L 190.5 22 Z " /><path fill="rgb(208,208,208)" stroke="rgb(208,208,208)" stroke-width="1" opacity="1" d="M 295.5 40 L 296.5 42 L 295.5 40 Z " /><path fill="rgb(208,208,208)" stroke="rgb(208,208,208)" stroke-width="1" opacity="1" d="M 303.5 47 L 312.5 57 L 303.5 47 Z " /><path fill="rgb(208,208,208)" stroke="rgb(208,208,208)" stroke-width="1" opacity="1" d="M 53.5 50 L 49.5 55 L 53.5 50 Z " /><path fill="rgb(208,208,208)" stroke="rgb(208,208,208)" stroke-width="1" opacity="1" d="M 283.5 60 L 285.5 63 L 283.5 60 Z " /><path fill="rgb(208,208,208)" stroke="rgb(208,208,208)" stroke-width="1" opacity="1" d="M 318.5 63 L 319.5 65 L 318.5 63 Z " /><path fill="rgb(208,208,208)" stroke="rgb(208,208,208)" stroke-width="1" opacity="1" d="M 297.5 74 L 299.5 77 L 297.5 74 Z " /><path fill="rgb(208,208,208)" stroke="rgb(208,208,208)" stroke-width="1" opacity="1" d="M 222.5 80 L 224.5 83 L 222.5 80 Z " /><path fill="rgb(208,208,208)" stroke="rgb(208,208,208)" stroke-width="1" opacity="1" d="M 136.5 81 L 135.5 83 L 136.5 81 Z " /><path fill="rgb(208,208,208)" stroke="rgb(208,208,208)" stroke-width="1" opacity="1" d="M 226.5 84 L 228.5 87 L 226.5 84 Z " /><path fill="rgb(208,208,208)" stroke="rgb(208,208,208)" stroke-width="1" opacity="1" d="M 131.5 86 L 130.5 88 L 131.5 86 Z " /><path fill="rgb(208,208,208)" stroke="rgb(208,208,208)" stroke-width="1" opacity="1" d="M 114.5 126 L 115 129.5 L 114 129.5 L 114.5 126 Z " /><path fill="rgb(208,208,208)" stroke="rgb(208,208,208)" stroke-width="1" opacity="1" d="M 245.5 126 L 246 134.5 L 245 134.5 L 245.5 126 Z " /><path fill="rgb(208,208,208)" stroke="rgb(208,208,208)" stroke-width="1" opacity="1" d="M 137.5 128 L 138 132.5 L 137 132.5 L 137.5 128 Z " /><path fill="rgb(208,208,208)" stroke="rgb(208,208,208)" stroke-width="1" opacity="1" d="M 222.5 128 L 223 132.5 L 222 132.5 L 222.5 128 Z " /><path fill="rgb(208,208,208)" stroke="rgb(208,208,208)" stroke-width="1" opacity="1" d="M 114.5 131 L 115 134.5 L 114 134.5 L 114.5 131 Z " /><path fill="rgb(208,208,208)" stroke="rgb(208,208,208)" stroke-width="1" opacity="1" d="M 337.5 167 L 338 169.5 L 337 169.5 L 337.5 167 Z " /><path fill="rgb(208,208,208)" stroke="rgb(208,208,208)" stroke-width="1" opacity="1" d="M 130.5 173 L 131.5 175 L 130.5 173 Z " /><path fill="rgb(208,208,208)" stroke="rgb(208,208,208)" stroke-width="1" opacity="1" d="M 228.5 174 L 223.5 180 L 228.5 174 Z " /><path fill="rgb(208,208,208)" stroke="rgb(208,208,208)" stroke-width="1" opacity="1" d="M 135.5 178 L 137.5 181 L 135.5 178 Z " /><path fill="rgb(208,208,208)" stroke="rgb(208,208,208)" stroke-width="1" opacity="1" d="M 22.5 190 L 23 192.5 L 22 192.5 L 22.5 190 Z " /><path fill="rgb(208,208,208)" stroke="rgb(208,208,208)" stroke-width="1" opacity="1" d="M 187.5 195 L 190 195.5 L 187.5 196 L 187.5 195 Z " /><path fill="rgb(208,208,208)" stroke="rgb(208,208,208)" stroke-width="1" opacity="1" d="M 168.5 235 L 171 235.5 L 168.5 236 L 168.5 235 Z " /><path fill="rgb(208,208,208)" stroke="rgb(208,208,208)" stroke-width="1" opacity="1" d="M 188.5 235 L 192 235.5 L 188.5 236 L 188.5 235 Z " /><path fill="rgb(208,208,208)" stroke="rgb(208,208,208)" stroke-width="1" opacity="1" d="M 269.5 243 L 270.5 245 L 269.5 243 Z " /><path fill="rgb(208,208,208)" stroke="rgb(208,208,208)" stroke-width="1" opacity="1" d="M 88.5 244 L 87.5 246 L 88.5 244 Z " /><path fill="rgb(208,208,208)" stroke="rgb(208,208,208)" stroke-width="1" opacity="1" d="M 276.5 249 L 278.5 252 L 276.5 249 Z " /><path fill="rgb(208,208,208)" stroke="rgb(208,208,208)" stroke-width="1" opacity="1" d="M 80.5 251 L 77.5 255 L 80.5 251 Z " /><path fill="rgb(208,208,208)" stroke="rgb(208,208,208)" stroke-width="1" opacity="1" d="M 285.5 258 L 287.5 261 L 285.5 258 Z " /><path fill="rgb(208,208,208)" stroke="rgb(208,208,208)" stroke-width="1" opacity="1" d="M 99.5 265 L 98.5 267 L 99.5 265 Z " /><path fill="rgb(208,208,208)" stroke="rgb(208,208,208)" stroke-width="1" opacity="1" d="M 89.5 275 L 88.5 277 L 89.5 275 Z " /><path fill="rgb(208,208,208)" stroke="rgb(208,208,208)" stroke-width="1" opacity="1" d="M 56.5 278 L 57.5 280 L 56.5 278 Z " /><path fill="rgb(208,208,208)" stroke="rgb(208,208,208)" stroke-width="1" opacity="1" d="M 84.5 281 L 83.5 283 L 84.5 281 Z " /><path fill="rgb(208,208,208)" stroke="rgb(208,208,208)" stroke-width="1" opacity="1" d="M 40.5 295 L 41.5 297 L 40.5 295 Z " /><path fill="rgb(208,208,208)" stroke="rgb(208,208,208)" stroke-width="1" opacity="1" d="M 74.5 296 L 76.5 299 L 74.5 296 Z " /><path fill="rgb(208,208,208)" stroke="rgb(208,208,208)" stroke-width="1" opacity="1" d="M 47.5 303 L 56.5 313 L 47.5 303 Z " /><path fill="rgb(208,208,208)" stroke="rgb(208,208,208)" stroke-width="1" opacity="1" d="M 309.5 306 L 306.5 310 L 309.5 306 Z " /><path fill="rgb(208,208,208)" stroke="rgb(208,208,208)" stroke-width="1" opacity="1" d="M 63.5 318 L 64.5 320 L 63.5 318 Z " /><path fill="rgb(208,208,208)" stroke="rgb(208,208,208)" stroke-width="1" opacity="1" d="M 175.5 336 L 185 336.5 L 175.5 337 L 175.5 336 Z " /><path fill="rgb(255,255,255)" stroke="rgb(255,255,255)" stroke-width="1" opacity="1" d="M 0 0 L 15 0 L 15 15 L 30 15 L 30 0 L 45 0 L 45 15 L 60 15 L 60 0 L 75 0 L 75 15 L 90 15 L 90 0 L 105 0 L 105.5 14 L 114.5 10 L 114.5 11 Q 73.7 26.7 47 56.5 Q 23.9 80.9 10.5 115 L 10 113.5 L 14 105.5 L 0 105 L 0 90 L 15 90 L 15 75 L 0 75 L 0 60 L 15 60 L 15 45 L 0 45 L 0 30 L 15 30 L 15 15 L 0 15 L 0 0 Z M 30 15 L 30 30 L 45 30 L 45 15 L 30 15 Z M 60 15 L 60 30 L 75 30 L 75 15 L 60 15 Z M 90 15 L 90 21 L 102 16 L 90 15 Z M 15 30 L 15 45 L 30 45 L 30 30 L 15 30 Z M 45 30 L 45 45 L 58 45 L 60 43 L 60 30 L 45 30 Z M 30 45 L 30 60 L 43 60 L 45 58 L 45 45 L 30 45 Z M 15 60 L 15 75 L 30 75 L 30 60 L 15 60 Z M 15 90 L 16 102 L 21 92 L 21 90 L 15 90 Z " /><path fill="rgb(255,255,255)" stroke="rgb(255,255,255)" stroke-width="1" opacity="1" d="M 120 0 L 134.5 0 L 135 3 L 137.5 3 L 137.5 4 L 119.5 9 L 120 7.5 L 120 0 Z " /><path fill="rgb(255,255,255)" stroke="rgb(255,255,255)" stroke-width="1" opacity="1" d="M 149.5 0 L 155 0.5 L 149.5 1 L 149.5 0 Z " /><path fill="rgb(255,255,255)" stroke="rgb(255,255,255)" stroke-width="1" opacity="1" d="M 206.5 0 L 224.5 0 L 225 4 L 206.5 1 L 206.5 0 Z " /><path fill="rgb(255,255,255)" stroke="rgb(255,255,255)" stroke-width="1" opacity="1" d="M 240 0 L 255 0 L 255 13.5 L 256.5 15 L 270 15 L 270 0 L 285 0 L 285 15 L 300 15 L 300 0 L 315 0 L 315 15 L 330 15 L 330 0 L 345 0 L 345 15 L 360 15 L 360 30 L 345 30 L 345 45 L 360 45 L 360 60 L 345 60 L 345 75 L 360 75 L 360 90 L 345 90 L 345 103.5 L 346.5 105 L 360 105 L 360 120 L 352.5 120 L 353 121.5 L 354 126.5 L 353 126.5 Q 346.6 102.4 334 84.5 L 336 85.5 L 338.5 90 L 345 90 L 345 75 L 330.5 75 L 330 76.5 L 334 82.5 L 332 81.5 Q 319.4 60.6 301.5 45 L 277 26.5 L 278.5 27 L 285 30 L 285 15 L 270 15 L 270 21.5 L 271.5 23 L 276 25.5 L 274.5 25 Q 256.2 13.3 233 6.5 L 235.5 6 L 239.5 8 L 240 0 Z M 300 15 L 300 30 L 315 30 L 315 15 L 300 15 Z M 330 15 L 330 30 L 345 30 L 345 15 L 330 15 Z M 285 30 L 285 32 L 295 38 L 300 43 L 300 30 L 285 30 Z M 315 30 L 315 45 L 330 45 L 330 30 L 315 30 Z M 304 45 L 315 57 L 315 45 L 304 45 Z M 330 45 L 330 60 L 345 60 L 345 45 L 330 45 Z M 318 60 L 328 74 Q 327 76 330 75 L 330 60 L 318 60 Z " /><path fill="rgb(255,255,255)" stroke="rgb(255,255,255)" stroke-width="1" opacity="1" d="M 144.5 1 L 148 1.5 L 144.5 2 L 144.5 1 Z " /><path fill="rgb(255,255,255)" stroke="rgb(255,255,255)" stroke-width="1" opacity="1" d="M 139.5 2 L 143 2.5 L 139.5 3 L 139.5 2 Z " /><path fill="rgb(255,255,255)" stroke="rgb(255,255,255)" stroke-width="1" opacity="1" d="M 226.5 4 L 232 5.5 L 229.5 6 L 226.5 5 L 226.5 4 Z " /><path fill="rgb(255,255,255)" stroke="rgb(255,255,255)" stroke-width="1" opacity="1" d="M 170.5 22 L 188 22.5 L 180 23 L 180 30 L 195 30 L 195 24 L 190.5 24 L 190.5 23 L 206.5 24 L 208.5 26 L 211.5 25 L 216 26.5 L 212.5 27 L 210 26 L 210.5 30 L 223.5 30 L 223.5 29 L 217 27.5 L 220.5 27 L 230 30.5 L 228.5 31 L 225 30 L 225 45 L 240 45 L 240 35.5 L 238.5 34 L 234 32.5 L 235.5 32 Q 263.3 42.2 283 60.5 Q 282.3 62.8 284.5 62 L 294 70.5 Q 316.4 92.6 328 125.5 L 327 125.5 L 324.5 120 L 315 120 L 315 135 L 329.5 135 L 330 132.5 L 329 130.5 L 330 130.5 L 332 138.5 L 331 138.5 L 330.5 136 L 330 150 L 334 150 L 334 148.5 L 333 144.5 L 334 144.5 L 335 150.5 Q 332.5 152 336 153.5 L 337 169.5 L 336 169.5 L 336 165 L 330 165 L 330 180 L 337 180 L 337.5 172 L 338 189.5 L 337 190.5 L 336.5 199 L 336 195 L 330 195 L 330 210 Q 335.2 212.1 334 207.5 L 335 207.5 Q 327.4 251.9 302.5 279 Q 290.9 261.6 275.5 248 L 251 230.5 L 252.5 231 L 254.5 232 L 255 225 L 243 225.5 L 250 229.5 L 248.5 229 L 237 223.5 L 238.5 223 L 240 223.5 L 240 210 L 225 210 L 225 217.5 L 226.5 219 L 236 222.5 L 234.5 223 Q 223.1 216.9 208 214.5 L 210 214 L 209.5 210 L 195 210 Q 193.9 213.5 201.5 212 L 207 213.5 L 202.5 214 L 193.5 212 L 166 211.5 L 180 210.5 L 165 210 L 165 213 L 158.5 213 L 140.5 217 L 140.5 216 L 150 214 L 149.5 210 L 135 210 L 135.5 218 L 138.5 217 L 138.5 218 Q 97 230.5 72 259.5 L 57.5 279 Q 40.8 260.7 32 234.5 L 33 234.5 L 35.5 240 L 45 240 L 45 225 L 30.5 225 L 30 227.5 L 31 229.5 L 30 229.5 L 27 217.5 L 28 217.5 L 29.5 224 L 30 210 L 26 210 L 26 211.5 L 27 215.5 L 26 215.5 L 23 199.5 L 23 190.5 L 24 190.5 L 24 195 L 30 195 L 30 180 L 23 180 L 22.5 188 L 22 170.5 L 23 169.5 L 23.5 161 L 24 165 L 30 165 L 30 150 Q 24.8 147.9 26 152.5 L 25 152.5 L 27 139.5 L 35.5 117 L 36 118.5 L 35.5 120 L 45 120 L 45 105 L 41 106.5 L 36.5 116 L 36 114.5 Q 49.8 84.8 72.5 64 Q 90.7 46.7 115.5 36 L 115.5 37 L 105 42.5 L 105.5 45 L 120 45 L 119.5 35 L 117.5 36 L 117.5 35 L 139.5 27 L 152.5 25 L 152.5 26 Q 147.9 24.8 150 30 L 165 30 L 165 24 L 161 23.5 L 169.5 23 L 170.5 22 Z M 135 30 L 135 45 L 150 45 L 150 30 L 135 30 Z M 165 30 L 165 45 L 180 45 L 180 30 L 165 30 Z M 195 30 L 195 45 L 210 45 L 210 30 L 195 30 Z M 256 42 L 255 45 L 259 45 L 256 42 Z M 100 45 L 90 52 L 90 60 L 105 60 L 105 45 L 100 45 Z M 120 45 L 120 60 L 135 60 L 135 45 L 120 45 Z M 150 45 L 150 60 L 165 60 L 165 45 L 150 45 Z M 180 45 L 180 60 L 195 60 L 195 45 L 180 45 Z M 210 45 L 210 60 L 225 60 L 225 45 L 210 45 Z M 240 45 L 240 60 L 255 60 L 255 45 L 240 45 Z M 271 52 L 270 60 L 281 60 L 271 52 Z M 79 60 L 75 64 L 75 75 L 90 75 L 90 60 L 79 60 Z M 105 60 L 105 75 L 120 75 L 120 60 L 105 60 Z M 135 60 L 135 75 L 144 75 L 145 75 L 138 80 Q 119 94 115 124 L 114 124 L 114 120 L 105 120 L 105 135 L 113 135 L 114 126 L 115 143 L 118 152 L 118 153 L 117 152 L 116 150 L 105 150 L 105 165 L 120 165 Q 121 159 118 156 L 119 154 L 129 173 Q 143 191 171 196 L 190 196 L 196 194 L 210 195 L 210 190 L 207 192 L 205 192 L 223 181 L 234 169 L 237 163 L 239 162 L 237 165 L 240 165 L 239 160 L 243 149 L 244 149 L 245 150 L 255 150 L 255 135 L 246 135 L 245 119 L 244 118 L 245 114 L 246 119 L 247 120 L 255 120 L 255 105 L 242 105 L 244 111 L 244 113 L 239 102 L 240 101 L 240 90 L 233 91 L 238 99 L 239 100 L 230 88 Q 221 76 206 70 L 206 69 L 210 71 L 210 60 L 195 60 L 195 66 L 204 68 L 204 69 L 189 65 L 172 65 L 172 64 L 180 64 L 180 60 L 165 60 L 165 65 L 169 66 Q 157 68 148 73 L 146 74 L 150 71 L 150 60 L 135 60 Z M 225 60 L 225 75 L 240 75 L 240 60 L 225 60 Z M 255 60 L 255 75 L 270 75 L 270 60 L 255 60 Z M 286 64 L 285 75 L 296 75 L 286 64 Z M 64 75 L 60 79 L 60 90 L 75 90 L 75 75 L 64 75 Z M 90 75 L 90 90 L 105 90 L 105 75 L 90 75 Z M 120 75 L 120 90 L 128 90 L 135 82 L 135 75 L 120 75 Z M 219 75 L 222 78 L 225 81 L 225 75 L 219 75 Z M 240 75 L 240 90 L 255 90 L 255 75 L 240 75 Z M 270 75 L 270 90 L 285 90 L 285 75 L 270 75 Z M 301 79 L 300 90 L 308 90 L 301 79 Z M 52 90 L 45 100 L 45 105 L 60 105 L 60 90 L 52 90 Z M 75 90 L 75 105 L 90 105 L 90 90 L 75 90 Z M 105 90 L 105 105 L 119 105 L 120 103 L 120 90 L 105 90 Z M 255 90 L 255 105 L 270 105 L 270 90 L 255 90 Z M 285 90 L 285 105 L 300 105 L 300 90 L 285 90 Z M 316 101 L 315 105 L 318 105 L 316 101 Z M 60 105 L 60 120 L 75 120 L 75 105 L 60 105 Z M 90 105 L 90 120 L 105 120 L 105 105 L 90 105 Z M 270 105 L 270 120 L 285 120 L 285 105 L 270 105 Z M 300 105 L 300 120 L 315 120 L 315 105 L 300 105 Z M 45 120 L 45 135 L 60 135 L 60 120 L 45 120 Z M 75 120 L 75 135 L 90 135 L 90 120 L 75 120 Z M 255 120 L 255 135 L 270 135 L 270 120 L 255 120 Z M 285 120 L 285 135 L 300 135 L 300 120 L 285 120 Z M 30 135 L 30 150 L 45 150 L 45 135 L 30 135 Z M 60 135 L 60 150 L 75 150 L 75 135 L 60 135 Z M 90 135 L 90 150 L 105 150 L 105 135 L 90 135 Z M 270 135 L 270 150 L 285 150 L 285 135 L 270 135 Z M 300 135 L 300 150 L 315 150 L 315 135 L 300 135 Z M 45 150 L 45 165 L 60 165 L 60 150 L 45 150 Z M 75 150 L 75 165 L 90 165 L 90 150 L 75 150 Z M 255 150 L 255 165 L 270 165 L 270 150 L 255 150 Z M 285 150 L 285 165 L 300 165 L 300 150 L 285 150 Z M 315 150 L 315 165 L 330 165 L 330 150 L 315 150 Z M 30 165 L 30 180 L 45 180 L 45 165 L 30 165 Z M 60 165 L 60 180 L 75 180 L 75 165 L 60 165 Z M 90 165 L 90 180 L 105 180 L 105 165 L 90 165 Z M 120 165 L 120 180 L 135 180 L 125 168 Q 124 164 120 165 Z M 240 165 L 240 180 L 255 180 L 255 165 L 240 165 Z M 270 165 L 270 180 L 285 180 L 285 165 L 270 165 Z M 300 165 L 300 180 L 315 180 L 315 165 L 300 165 Z M 45 180 L 45 195 L 60 195 L 60 180 L 45 180 Z M 75 180 L 75 195 L 90 195 L 90 180 L 75 180 Z M 105 180 L 105 195 L 120 195 L 120 180 L 105 180 Z M 136 180 L 135 195 L 150 195 Q 150 195 150 191 L 136 180 Z M 225 180 L 225 195 L 240 195 L 240 180 L 225 180 Z M 255 180 L 255 195 L 270 195 L 270 180 L 255 180 Z M 285 180 L 285 195 L 300 195 L 300 180 L 285 180 Z M 315 180 L 315 195 L 330 195 L 330 180 L 315 180 Z M 30 195 L 30 210 L 45 210 L 45 195 L 30 195 Z M 60 195 L 60 210 L 75 210 L 75 195 L 60 195 Z M 90 195 L 90 210 L 105 210 L 105 195 L 90 195 Z M 120 195 L 120 210 L 135 210 L 135 195 L 120 195 Z M 150 195 L 150 210 L 165 210 L 165 195 L 150 195 Z M 210 195 L 210 210 L 225 210 L 225 195 L 210 195 Z M 240 195 L 240 210 L 255 210 L 255 195 L 240 195 Z M 270 195 L 270 210 L 285 210 L 285 195 L 270 195 Z M 300 195 L 300 210 L 315 210 L 315 195 L 300 195 Z M 191 196 L 190 197 L 180 197 L 180 210 L 195 210 L 195 196 L 191 196 Z M 45 210 L 45 225 L 60 225 L 60 210 L 45 210 Z M 75 210 L 75 225 L 90 225 L 90 210 L 75 210 Z M 105 210 L 105 225 L 118 225 L 120 224 L 120 210 L 105 210 Z M 255 210 L 255 225 L 270 225 L 270 210 L 255 210 Z M 285 210 L 285 225 L 300 225 L 300 210 L 285 210 Z M 315 210 L 315 225 L 330 225 L 330 210 L 315 210 Z M 60 225 L 60 240 L 75 240 L 75 225 L 60 225 Z M 90 225 L 90 240 L 95 239 L 105 232 L 105 225 L 90 225 Z M 270 225 L 270 240 L 285 240 L 285 225 L 270 225 Z M 300 225 L 300 240 L 315 240 L 315 225 L 300 225 Z M 45 240 L 45 255 L 60 255 L 60 240 L 45 240 Z M 75 240 L 76 255 L 90 242 L 90 240 L 75 240 Z M 268 240 L 269 241 L 270 242 Q 271 239 268 240 Z M 285 240 L 285 255 L 300 255 L 300 240 L 285 240 Z M 315 240 L 315 255 L 318 255 L 325 241 L 315 240 Z M 43 255 L 44 259 L 45 259 Q 47 254 43 255 Z M 60 255 L 60 270 L 63 270 L 75 256 L 60 255 Z M 300 255 L 300 270 L 309 270 L 315 261 L 315 255 L 300 255 Z M 53 270 L 56 277 L 60 275 L 60 270 L 53 270 Z M 298 270 L 299 274 L 300 274 Q 302 269 298 270 Z " /><path fill="rgb(255,255,255)" stroke="rgb(255,255,255)" stroke-width="1" opacity="1" d="M 154.5 24 L 160 24.5 L 154.5 25 L 154.5 24 Z " /><path fill="rgb(255,255,255)" stroke="rgb(255,255,255)" stroke-width="1" opacity="1" d="M 175.5 88 L 184 88.5 L 180 89.5 L 184.5 90 L 189.5 89 L 198 92.5 L 196.5 93 L 195 92.5 L 195 105 L 210 105 L 209 100 L 199 93.5 L 200.5 94 Q 208.3 97.3 213 103.5 L 219 114.5 L 218 114.5 L 212.5 105 L 210 105.5 L 210 120 L 219.5 120 L 220.5 119 L 222 122.5 L 222 137.5 L 221 137.5 L 220.5 135 L 210 135 L 210 150 L 217 150 L 218.5 146 L 219 147.5 Q 215.1 157.1 207.5 163 Q 201.5 169 191.5 171 L 191.5 170 L 195 168.5 L 194.5 165 L 180 165 L 180 172 L 183.5 172 L 183.5 173 L 169.5 172 L 162 168.5 L 163.5 168 L 165 168.5 L 165 165 L 158.5 165 L 158.5 166 L 161 167.5 L 159.5 167 Q 152.1 164.4 148 158.5 L 139 142.5 Q 136.5 135 138 123.5 L 139 123.5 L 139 135 L 150 135 L 150 120 L 140 120 L 139.5 122 L 139 118.5 Q 143.3 104.8 153.5 97 L 165.5 91 L 165 92.5 L 165 105 L 180 105 L 180 90 L 170.5 90 L 170.5 89 L 175.5 88 Z M 150 103 L 148 105 L 150 105 L 150 103 Z M 150 105 L 150 120 L 165 120 L 165 105 L 150 105 Z M 180 105 L 180 120 L 195 120 L 195 105 L 180 105 Z M 165 120 L 165 135 L 180 135 L 180 120 L 165 120 Z M 195 120 L 195 135 L 210 135 L 210 120 L 195 120 Z M 150 135 L 150 150 L 165 150 L 165 135 L 150 135 Z M 180 135 L 180 150 L 195 150 L 195 135 L 180 135 Z M 144 150 L 146 155 L 150 158 L 150 150 L 144 150 Z M 165 150 L 165 165 L 180 165 L 180 150 L 165 150 Z M 195 150 L 195 165 L 204 165 L 210 160 L 210 150 L 195 150 Z " /><path fill="rgb(255,255,255)" stroke="rgb(255,255,255)" stroke-width="1" opacity="1" d="M 8.5 119 L 9 120.5 L 3.5 138 L 3 135 L 0 134.5 L 0 120 L 7.5 120 L 8.5 119 Z " /><path fill="rgb(255,255,255)" stroke="rgb(255,255,255)" stroke-width="1" opacity="1" d="M 354.5 128 L 356 133.5 L 355 133.5 L 354.5 128 Z " /><path fill="rgb(255,255,255)" stroke="rgb(255,255,255)" stroke-width="1" opacity="1" d="M 356 135 L 360 135.5 L 360 153.5 L 359 153.5 L 356 135 Z " /><path fill="rgb(255,255,255)" stroke="rgb(255,255,255)" stroke-width="1" opacity="1" d="M 245.5 137 L 246 142.5 L 244.5 147 L 244 143.5 L 245.5 137 Z " /><path fill="rgb(255,255,255)" stroke="rgb(255,255,255)" stroke-width="1" opacity="1" d="M 2.5 139 L 3 142.5 L 2 142.5 L 2.5 139 Z " /><path fill="rgb(255,255,255)" stroke="rgb(255,255,255)" stroke-width="1" opacity="1" d="M 220.5 139 L 221 141.5 L 220 141.5 L 220.5 139 Z " /><path fill="rgb(255,255,255)" stroke="rgb(255,255,255)" stroke-width="1" opacity="1" d="M 332.5 140 L 333 142.5 L 332 142.5 L 332.5 140 Z " /><path fill="rgb(255,255,255)" stroke="rgb(255,255,255)" stroke-width="1" opacity="1" d="M 1.5 144 L 2 147.5 L 1 147.5 L 1.5 144 Z " /><path fill="rgb(255,255,255)" stroke="rgb(255,255,255)" stroke-width="1" opacity="1" d="M 0.5 149 L 1 154.5 L 0 154.5 L 0.5 149 Z " /><path fill="rgb(255,255,255)" stroke="rgb(255,255,255)" stroke-width="1" opacity="1" d="M 24.5 154 L 25 159.5 L 24 159.5 L 24.5 154 Z " /><path fill="rgb(255,255,255)" stroke="rgb(255,255,255)" stroke-width="1" opacity="1" d="M 185.5 171 L 190 171.5 L 185.5 172 L 185.5 171 Z " /><path fill="rgb(255,255,255)" stroke="rgb(255,255,255)" stroke-width="1" opacity="1" d="M 202.5 192 L 204 192.5 L 199.5 194 L 199.5 193 L 202.5 192 Z " /><path fill="rgb(255,255,255)" stroke="rgb(255,255,255)" stroke-width="1" opacity="1" d="M 335.5 200 L 336 205.5 L 335 205.5 L 335.5 200 Z " /><path fill="rgb(255,255,255)" stroke="rgb(255,255,255)" stroke-width="1" opacity="1" d="M 359.5 205 L 360 210.5 L 359 210.5 L 359.5 205 Z " /><path fill="rgb(255,255,255)" stroke="rgb(255,255,255)" stroke-width="1" opacity="1" d="M 0.5 206 L 4 225 L 0 224.5 L 0.5 206 Z " /><path fill="rgb(255,255,255)" stroke="rgb(255,255,255)" stroke-width="1" opacity="1" d="M 358.5 212 L 359 215.5 L 358 215.5 L 358.5 212 Z " /><path fill="rgb(255,255,255)" stroke="rgb(255,255,255)" stroke-width="1" opacity="1" d="M 357.5 217 L 358 220.5 L 357 220.5 L 357.5 217 Z " /><path fill="rgb(255,255,255)" stroke="rgb(255,255,255)" stroke-width="1" opacity="1" d="M 356.5 222 L 357 225 L 360 225.5 L 360 240 L 352.5 240 L 351.5 241 L 351 239.5 L 356.5 222 Z " /><path fill="rgb(255,255,255)" stroke="rgb(255,255,255)" stroke-width="1" opacity="1" d="M 4.5 226 L 6 231.5 L 5 231.5 L 4.5 226 Z " /><path fill="rgb(255,255,255)" stroke="rgb(255,255,255)" stroke-width="1" opacity="1" d="M 6.5 233 Q 13.4 257.1 26 275.5 L 24 274.5 L 22 270 L 15 270 L 15 285 L 29.5 285 L 30 283.5 L 26 277.5 L 28 278.5 Q 40.2 298.8 57.5 314 Q 85.5 340.5 127 353.5 L 124.5 354 L 120.5 352 L 120 360 L 105 360 L 105 346.5 L 103.5 345 L 90 345 L 90 360 L 75 360 L 75 345 L 60 345 L 60 360 L 45 360 L 45 345 L 30 345 L 30 360 L 15 360 L 15 345 L 0 345 L 0 330 L 15 330 L 15 315 L 0 315 L 0 300 L 15 300 L 15 285 L 0 285 L 0 270 L 15 270 L 15 256.5 L 13.5 255 L 0 255 L 0 240 L 7.5 240 L 7 238.5 L 6.5 233 Z M 30 285 L 30 300 L 43 300 L 32 287 Q 33 284 30 285 Z M 15 300 L 15 315 L 30 315 L 30 300 L 15 300 Z M 46 303 L 45 315 L 57 315 L 46 303 Z M 30 315 L 30 330 L 45 330 L 45 315 L 30 315 Z M 61 317 L 60 330 L 75 330 L 75 328 L 71 326 L 61 317 Z M 15 330 L 15 345 L 30 345 L 30 330 L 15 330 Z M 45 330 L 45 345 L 60 345 L 60 330 L 45 330 Z M 75 330 L 75 345 L 90 345 L 90 338 L 75 330 Z " /><path fill="rgb(255,255,255)" stroke="rgb(255,255,255)" stroke-width="1" opacity="1" d="M 171.5 235 L 186 235.5 L 180 236 L 180.5 240 L 195 240 L 195 237 L 188.5 237 L 188.5 236 L 197.5 236 L 223.5 243 Q 252.7 255.3 272 277.5 L 285 296.5 Q 269.3 311.8 247.5 321 L 247.5 320 L 255 317 L 254.5 315 L 240 315 L 240 322.5 L 241.5 323 L 245.5 321 L 245.5 322 Q 228.3 331.3 204.5 334 L 204.5 333 Q 209 334 210 331.5 L 209.5 330 L 195 330 L 195 335.5 L 194.5 336 L 163.5 336 L 141 331.5 L 144.5 331 L 150 332 L 149.5 330 L 140.5 330 L 137.5 331 L 122 325.5 L 123.5 325 L 135 329 L 135 315 L 120 315 L 120 323.5 L 121 324.5 L 119.5 325 Q 93.1 314.9 75 296.5 L 81 285.5 L 94.5 270 Q 111.8 252.3 137.5 243 L 137.5 244 L 135 245.5 L 135 255 L 150 255 L 150 240.5 L 148.5 240 L 145.5 241 L 145.5 240 L 150.5 239 L 151.5 240 L 165 240 Q 166.5 236.2 163.5 237 L 163.5 236 Q 169.8 237.7 171.5 235 Z M 165 240 L 165 255 L 180 255 L 180 240 L 165 240 Z M 195 240 L 195 255 L 210 255 L 210 240 L 195 240 Z M 226 245 L 225 255 L 240 255 L 240 252 L 226 245 Z M 120 252 L 116 255 L 120 255 L 120 252 Z M 120 255 L 120 270 L 135 270 L 135 255 L 120 255 Z M 150 255 L 150 270 L 165 270 L 165 255 L 150 255 Z M 180 255 L 180 270 L 195 270 L 195 255 L 180 255 Z M 210 255 L 210 270 L 225 270 L 225 255 L 210 255 Z M 240 255 L 240 270 L 255 270 L 255 264 L 245 255 L 240 255 Z M 104 263 L 97 270 L 105 270 L 105 264 L 104 263 Z M 105 270 L 105 285 L 120 285 L 120 270 L 105 270 Z M 135 270 L 135 285 L 150 285 L 150 270 L 135 270 Z M 165 270 L 165 285 L 180 285 L 180 270 L 165 270 Z M 195 270 L 195 285 L 210 285 L 210 270 L 195 270 Z M 225 270 L 225 285 L 240 285 L 240 270 L 225 270 Z M 255 270 L 255 285 L 270 285 L 269 276 L 264 270 L 255 270 Z M 90 277 L 83 285 L 90 285 L 90 277 Z M 90 285 L 90 300 L 105 300 L 105 285 L 90 285 Z M 120 285 L 120 300 L 135 300 L 135 285 L 120 285 Z M 150 285 L 150 300 L 165 300 L 165 285 L 150 285 Z M 180 285 L 180 300 L 195 300 L 195 285 L 180 285 Z M 210 285 L 210 300 L 225 300 L 225 285 L 210 285 Z M 240 285 L 240 300 L 255 300 L 255 285 L 240 285 Z M 270 285 L 270 300 L 280 300 L 284 297 L 278 287 Q 276 283 270 285 Z M 82 300 Q 84 305 90 307 L 90 300 L 82 300 Z M 105 300 L 105 315 L 120 315 L 120 300 L 105 300 Z M 135 300 L 135 315 L 150 315 L 150 300 L 135 300 Z M 165 300 L 165 315 L 180 315 L 180 300 L 165 300 Z M 195 300 L 195 315 L 210 315 L 210 300 L 195 300 Z M 225 300 L 225 315 L 240 315 L 240 300 L 225 300 Z M 255 300 L 255 315 Q 264 313 270 307 L 270 300 L 255 300 Z M 103 315 L 104 316 L 105 317 Q 106 314 103 315 Z M 150 315 L 150 330 L 165 330 L 165 315 L 150 315 Z M 180 315 L 180 330 L 195 330 L 195 315 L 180 315 Z M 210 315 L 210 330 Q 220 331 225 329 L 225 315 L 210 315 Z M 165 330 L 165 335 L 180 335 L 180 330 L 165 330 Z " /><path fill="rgb(255,255,255)" stroke="rgb(255,255,255)" stroke-width="1" opacity="1" d="M 157.5 237 L 162 237.5 L 157.5 238 L 157.5 237 Z " /><path fill="rgb(255,255,255)" stroke="rgb(255,255,255)" stroke-width="1" opacity="1" d="M 152.5 238 L 156 238.5 L 152.5 239 L 152.5 238 Z " /><path fill="rgb(255,255,255)" stroke="rgb(255,255,255)" stroke-width="1" opacity="1" d="M 141.5 241 L 144 241.5 L 139.5 243 L 139.5 242 L 141.5 241 Z " /><path fill="rgb(255,255,255)" stroke="rgb(255,255,255)" stroke-width="1" opacity="1" d="M 349.5 245 L 350 246.5 L 346 254.5 L 360 255 L 360 270 L 345 270 L 345 285 L 360 285 L 360 300 L 345 300 L 345 315 L 360 315 L 360 330 L 345 330 L 345 345 L 360 345 L 360 360 L 345 360 L 345 345 L 330 345 L 330 360 L 315 360 L 315 345 L 300 345 L 300 360 L 285 360 L 285 345 L 270 345 L 270 360 L 255 360 L 254.5 346 L 245.5 350 L 245.5 349 Q 286.3 333.3 313 303.5 Q 336.1 279.1 349.5 245 Z M 345 258 L 339 269 L 340 270 L 345 270 L 345 258 Z M 330 285 L 330 300 L 345 300 L 345 285 L 330 285 Z M 318 300 L 315 303 L 315 315 L 330 315 L 330 300 L 318 300 Z M 303 315 L 300 318 L 300 330 L 315 330 L 315 315 L 303 315 Z M 330 315 L 330 330 L 345 330 L 345 315 L 330 315 Z M 285 330 L 285 345 L 300 345 L 300 330 L 285 330 Z M 315 330 L 315 345 L 330 345 L 330 330 L 315 330 Z M 269 339 L 258 345 L 270 345 L 270 340 L 269 339 Z " /><path fill="rgb(255,255,255)" stroke="rgb(255,255,255)" stroke-width="1" opacity="1" d="M 196.5 334 L 203 334.5 L 196.5 335 L 196.5 334 Z " /><path fill="rgb(255,255,255)" stroke="rgb(255,255,255)" stroke-width="1" opacity="1" d="M 239.5 351 L 241 351.5 L 240 352.5 L 240 360 L 225.5 360 L 225 357 L 222.5 357 L 222.5 356 L 239.5 351 Z " /><path fill="rgb(255,255,255)" stroke="rgb(255,255,255)" stroke-width="1" opacity="1" d="M 128.5 354 L 134 355.5 L 131.5 356 L 128.5 355 L 128.5 354 Z " /><path fill="rgb(255,255,255)" stroke="rgb(255,255,255)" stroke-width="1" opacity="1" d="M 135 356 Q 139.3 355 140.5 358 L 143.5 357 L 154 359.5 L 135 360 L 135 356 Z " /><path fill="rgb(255,255,255)" stroke="rgb(255,255,255)" stroke-width="1" opacity="1" d="M 217.5 357 L 221 357.5 L 217.5 358 L 217.5 357 Z " /><path fill="rgb(255,255,255)" stroke="rgb(255,255,255)" stroke-width="1" opacity="1" d="M 212.5 358 L 216 358.5 L 212.5 359 L 212.5 358 Z " /><path fill="rgb(255,255,255)" stroke="rgb(255,255,255)" stroke-width="1" opacity="1" d="M 205.5 359 L 211 359.5 L 205.5 360 L 205.5 359 Z " /><path fill="rgb(238,238,238)" stroke="rgb(238,238,238)" stroke-width="1" opacity="1" d="M 15 0 L 30 0 L 30 15 L 45 15 L 45 0 L 60 0 L 60 15 L 75 15 L 75 0 L 90 0 L 90 15 L 100.5 15 L 100.5 16 L 90.5 21 L 90 15 L 75 15 L 75 30 L 60 30 L 60 42.5 L 57.5 45 L 45 45 L 45 57.5 L 42.5 60 L 30 60 L 30 75 L 15 75 L 15 90 L 21 90.5 L 15.5 101 L 15 90 L 0 90 L 0 75 L 15 75 L 15 60 L 0 60 L 0 45 L 15 45 L 15 30 L 0 30 L 0 15 L 15 15 L 15 0 Z M 15 15 L 15 30 L 30 30 L 30 15 L 15 15 Z M 45 15 L 45 30 L 60 30 L 60 15 L 45 15 Z M 30 30 L 30 45 L 45 45 L 45 30 L 30 30 Z M 15 45 L 15 60 L 30 60 L 30 45 L 15 45 Z " /><path fill="rgb(238,238,238)" stroke="rgb(238,238,238)" stroke-width="1" opacity="1" d="M 105 0 L 120 0 L 120 8 L 108 12.5 L 108.5 14 L 105 13 L 105 0 Z " /><path fill="rgb(238,238,238)" stroke="rgb(238,238,238)" stroke-width="1" opacity="1" d="M 135 0 L 148 0.5 L 135 3 L 135 0 Z " /><path fill="rgb(238,238,238)" stroke="rgb(238,238,238)" stroke-width="1" opacity="1" d="M 225 0 L 240 0 L 240 7.5 L 238.5 7 L 235.5 8 L 235.5 6 L 226.5 4 L 225 2.5 L 225 0 Z " /><path fill="rgb(238,238,238)" stroke="rgb(238,238,238)" stroke-width="1" opacity="1" d="M 255 0 L 270 0 L 270 15 L 285 15 L 285 0 L 300 0 L 300 15 L 315 15 L 315 0 L 330 0 L 330 15 L 345 15 L 345 0 L 360 0 L 360 15 L 345 15 L 345 30 L 360 30 L 360 45 L 345 45 L 345 60 L 360 60 L 360 75 L 345 75 L 345 90 L 360 90 L 360 105 L 346.5 105 L 346 103.5 L 345 102.5 L 345 90 L 338.5 90 L 337.5 91 L 338 89.5 Q 330 73 318 60.5 L 330 60 L 330 45 L 315 45 L 315 56.5 L 313.5 58 L 314 56.5 L 303.5 46 L 302 46.5 L 303.5 45 L 315 45 L 315 30 L 300 30 L 299.5 42 Q 287 30 270.5 22 L 269 22.5 L 270 21.5 L 270 15 L 257.5 15 L 255 14 L 255 0 Z M 285 15 L 285 30 L 300 30 L 300 15 L 285 15 Z M 315 15 L 315 30 L 330 30 L 330 15 L 315 15 Z M 330 30 L 330 45 L 345 45 L 345 30 L 330 30 Z M 330 60 L 330 75 L 345 75 L 345 60 L 330 60 Z " /><path fill="rgb(238,238,238)" stroke="rgb(238,238,238)" stroke-width="1" opacity="1" d="M 180 23 L 183.5 24 L 186.5 23 L 187.5 24 L 195 24 L 195 30 L 210 30 L 210.5 26 L 215.5 27 L 217 26.5 L 216.5 28 L 223 29.5 L 210 30 L 210 45 L 225 45 L 225 30.5 L 226.5 30 L 232.5 32 L 234 31.5 L 233.5 33 L 240 35 L 240 45 L 255 45 Q 253.9 42.3 256.5 43 L 258 42.5 L 257.5 44 L 259 44.5 L 255 45 L 255 60 L 270 60 L 270.5 52 L 278.5 58 L 280 57.5 L 279.5 60 L 270 60 L 270 75 L 285 75 L 285 64.5 L 287 63.5 L 286 64.5 L 295.5 74 L 297 73.5 L 295.5 75 L 285 75 L 285 90 L 300 90 L 300.5 80 L 303 80.5 L 303 82.5 L 308 89.5 L 300 90 L 300 105 L 315 105 L 315.5 101 L 316.5 103 L 318 102.5 L 317 105 L 315 105.5 L 315 120 L 324.5 120 L 325 121.5 L 327.5 127 L 329 126.5 L 328 129.5 L 330 135 L 315 135 L 315 150 L 330 150 L 330 136.5 L 331 136.5 L 332.5 144 L 334 143.5 L 333 148.5 L 333.5 150 L 330 150.5 L 330 165 L 336 165 L 336 172.5 L 337 175.5 L 337 177.5 L 337 180 L 330 180 L 330 195 L 336 195 L 336 198.5 L 334 210 L 330 210.5 L 330 225 L 315 225 L 315 240 L 323.5 240 L 324 242.5 L 324.5 244 L 323 243.5 L 318 255 Q 313.1 253.2 315 259.5 L 309 270 L 300.5 270 L 300 272.5 L 297 272.5 L 298 270 L 300 269.5 L 300 255 L 285 255 L 285 240 L 270 240 L 269.5 242 L 268.5 240 L 270 239.5 L 270 225 L 255 225 L 255 231.5 L 252.5 230 L 244 225.5 L 255 225 L 255 210 L 240 210 L 240 223.5 L 238.5 225 L 238.5 223 L 232.5 221 L 231 221.5 L 231.5 220 L 225 218 L 225 210 L 210 210 L 209.5 214 L 202.5 212 L 196.5 212 L 194.5 210 L 180.5 210 L 179.5 211 L 165.5 211 L 164.5 210 L 150 210 Q 152.2 215.6 146.5 214 L 139 216.5 L 139.5 218 L 135 217 L 135 210 L 120 210 L 120 223.5 L 118.5 224 L 118.5 226 L 117.5 225 L 105 225 L 105 231.5 L 106 232.5 L 104.5 232 L 92.5 240 L 90 240 L 87.5 244 L 81 249.5 L 81.5 251 L 80.5 250 L 76 254.5 Q 78.7 256.3 74.5 258 L 73.5 257 L 68 262.5 L 67 264.5 L 67.5 266 Q 65.8 263.2 64 267.5 L 62.5 270 Q 58.3 268.7 60 273.5 L 57.5 277 L 52 270.5 L 60 270 L 60 255 L 45 255 L 44.5 259 L 43.5 257 L 42 257.5 L 43 255 L 45 254.5 L 45 240 L 35.5 240 L 35 238.5 L 32.5 233 L 31 233.5 L 32 230.5 L 30 225 L 45 225 L 45 210 L 30 210 L 30 222.5 L 29 222.5 L 27.5 216 L 26 216.5 L 27 211.5 L 26.5 210 L 30 209.5 L 30 195 L 24 195 L 24 187.5 L 23 186.5 L 23 180 L 30 180 L 30 165 L 24 165 L 24 161.5 L 26 150 L 30 149.5 L 30 135 L 45 135 L 45 120 L 36.5 120 L 36 117.5 L 35.5 116 L 37 116.5 L 42 105 Q 46.9 106.8 45 100.5 L 51 90 L 60 90 L 60 79.5 L 63 75.5 L 62.5 74 L 63.5 75 L 75 75 L 75 63.5 L 74 62.5 L 76.5 62 L 79.5 60 L 90 60 L 90 51.5 L 91.5 51 L 100.5 45 L 105 45 Q 103.5 41.3 106.5 42 L 117 36.5 L 116.5 35 L 120 36 L 120 45 L 135 45 L 135 30 L 149.5 30 L 150 26 L 153.5 26 L 165 24 L 165 30 L 180 30 L 180 23 Z M 150 30 L 150 45 L 165 45 L 165 30 L 150 30 Z M 180 30 L 180 45 L 195 45 L 195 30 L 180 30 Z M 105 45 L 105 60 L 120 60 L 120 45 L 105 45 Z M 135 45 L 135 60 L 150 60 L 150 45 L 135 45 Z M 165 45 L 165 60 L 180 60 L 180 45 L 165 45 Z M 195 45 L 195 60 L 210 60 L 210 45 L 195 45 Z M 225 45 L 225 60 L 240 60 L 240 45 L 225 45 Z M 90 60 L 90 75 L 105 75 L 105 60 L 90 60 Z M 120 60 L 120 75 L 135 75 L 135 60 L 120 60 Z M 150 60 L 150 71 L 143 75 L 135 75 L 135 81 L 130 87 L 130 89 L 129 88 Q 127 92 120 90 L 120 102 L 119 104 L 118 105 L 105 105 L 105 120 L 114 120 L 113 124 L 113 135 L 105 135 L 105 150 L 116 150 L 117 154 L 119 153 L 118 155 L 120 160 L 120 165 L 123 165 L 126 171 Q 128 175 130 172 L 129 174 L 134 180 L 120 180 L 120 195 L 135 195 L 136 180 L 149 190 L 150 190 L 151 195 L 164 195 L 165 197 L 165 210 L 180 210 L 180 197 L 191 197 L 192 196 L 195 197 L 195 210 L 210 210 L 210 195 L 200 195 L 198 194 L 200 194 L 203 194 L 209 191 L 210 191 L 210 195 L 225 195 L 225 180 L 240 180 L 240 166 L 238 165 L 239 162 L 240 162 L 241 165 L 255 165 L 255 150 L 244 150 L 243 148 L 245 148 L 247 138 L 247 135 L 255 135 L 255 120 L 246 120 L 245 114 L 244 114 L 244 113 L 243 108 L 242 108 L 242 107 L 243 105 L 255 105 L 255 90 L 240 90 L 240 100 L 234 92 L 235 90 L 240 90 L 240 75 L 225 75 L 225 81 L 220 77 L 219 75 L 225 75 L 225 60 L 210 60 L 210 70 L 207 69 L 205 70 L 205 69 L 197 66 Q 194 65 195 60 L 181 60 L 180 64 L 170 64 L 169 65 L 165 65 L 165 60 L 150 60 Z M 240 60 L 240 75 L 255 75 L 255 60 L 240 60 Z M 75 75 L 75 90 L 90 90 L 90 75 L 75 75 Z M 105 75 L 105 90 L 120 90 L 120 75 L 105 75 Z M 255 75 L 255 90 L 270 90 L 270 75 L 255 75 Z M 60 90 L 60 105 L 75 105 L 75 90 L 60 90 Z M 90 90 L 90 105 L 105 105 L 105 90 L 90 90 Z M 270 90 L 270 105 L 285 105 L 285 90 L 270 90 Z M 45 105 L 45 120 L 60 120 L 60 105 L 45 105 Z M 75 105 L 75 120 L 90 120 L 90 105 L 75 105 Z M 255 105 L 255 120 L 270 120 L 270 105 L 255 105 Z M 285 105 L 285 120 L 300 120 L 300 105 L 285 105 Z M 60 120 L 60 135 L 75 135 L 75 120 L 60 120 Z M 90 120 L 90 135 L 105 135 L 105 120 L 90 120 Z M 270 120 L 270 135 L 285 135 L 285 120 L 270 120 Z M 300 120 L 300 135 L 315 135 L 315 120 L 300 120 Z M 45 135 L 45 150 L 60 150 L 60 135 L 45 135 Z M 75 135 L 75 150 L 90 150 L 90 135 L 75 135 Z M 255 135 L 255 150 L 270 150 L 270 135 L 255 135 Z M 285 135 L 285 150 L 300 150 L 300 135 L 285 135 Z M 30 150 L 30 165 L 45 165 L 45 150 L 30 150 Z M 60 150 L 60 165 L 75 165 L 75 150 L 60 150 Z M 90 150 L 90 165 L 105 165 L 105 150 L 90 150 Z M 270 150 L 270 165 L 285 165 L 285 150 L 270 150 Z M 300 150 L 300 165 L 315 165 L 315 150 L 300 150 Z M 45 165 L 45 180 L 60 180 L 60 165 L 45 165 Z M 75 165 L 75 180 L 90 180 L 90 165 L 75 165 Z M 105 165 L 105 180 L 120 180 L 120 165 L 105 165 Z M 255 165 L 255 180 L 270 180 L 270 165 L 255 165 Z M 285 165 L 285 180 L 300 180 L 300 165 L 285 165 Z M 315 165 L 315 180 L 330 180 L 330 165 L 315 165 Z M 30 180 L 30 195 L 45 195 L 45 180 L 30 180 Z M 60 180 L 60 195 L 75 195 L 75 180 L 60 180 Z M 90 180 L 90 195 L 105 195 L 105 180 L 90 180 Z M 240 180 L 240 195 L 255 195 L 255 180 L 240 180 Z M 270 180 L 270 195 L 285 195 L 285 180 L 270 180 Z M 300 180 L 300 195 L 315 195 L 315 180 L 300 180 Z M 45 195 L 45 210 L 60 210 L 60 195 L 45 195 Z M 75 195 L 75 210 L 90 210 L 90 195 L 75 195 Z M 105 195 L 105 210 L 120 210 L 120 195 L 105 195 Z M 135 195 L 135 210 L 150 210 L 150 195 L 135 195 Z M 225 195 L 225 210 L 240 210 L 240 195 L 225 195 Z M 255 195 L 255 210 L 270 210 L 270 195 L 255 195 Z M 285 195 L 285 210 L 300 210 L 300 195 L 285 195 Z M 315 195 L 315 210 L 330 210 L 330 195 L 315 195 Z M 60 210 L 60 225 L 75 225 L 75 210 L 60 210 Z M 90 210 L 90 225 L 105 225 L 105 210 L 90 210 Z M 270 210 L 270 225 L 285 225 L 285 210 L 270 210 Z M 300 210 L 300 225 L 315 225 L 315 210 L 300 210 Z M 45 225 L 45 240 L 60 240 L 60 225 L 45 225 Z M 75 225 L 75 240 L 90 240 L 90 225 L 75 225 Z M 285 225 L 285 240 L 300 240 L 300 225 L 285 225 Z M 60 240 L 60 255 L 75 255 L 75 240 L 60 240 Z M 300 240 L 300 255 L 315 255 L 315 240 L 300 240 Z " /><path fill="rgb(238,238,238)" stroke="rgb(238,238,238)" stroke-width="1" opacity="1" d="M 56.5 47 L 54.5 50 L 56.5 47 Z " /><path fill="rgb(238,238,238)" stroke="rgb(238,238,238)" stroke-width="1" opacity="1" d="M 48.5 55 L 47.5 57 L 48.5 55 Z " /><path fill="rgb(238,238,238)" stroke="rgb(238,238,238)" stroke-width="1" opacity="1" d="M 180.5 89 L 183 89.5 L 180 90 L 180 105 L 195 105 L 195 92.5 L 196.5 91 L 196.5 93 L 199.5 94 L 201 93.5 Q 198.8 94.8 201.5 96 L 205.5 98 L 207 97.5 L 206 98.5 L 210 102.5 Q 208.8 106.3 212.5 105 L 214 104.5 L 213 106.5 L 216 107.5 L 215 109.5 L 220 119.5 L 210 120 L 210 135 L 220.5 135 L 221 136.5 L 219 144.5 L 215.5 150 L 210 150 L 210 158.5 Q 204.6 161.3 206.5 164 L 204.5 164 L 195 165 L 195 169 L 193.5 169 L 180 172 L 180 165 L 165 165 L 164.5 169 L 160.5 167 L 159 167.5 L 159.5 166 L 158 165.5 L 165 165 L 165 150 L 150 150 L 149.5 158 L 145.5 153 L 144 153.5 L 145 151.5 L 144.5 150 L 150 150 L 150 135 L 139 135 L 139 124.5 L 140 120 L 150 120 L 150 105 L 148 104.5 L 150 103.5 L 150.5 105 L 165 105 L 165 92.5 L 166.5 92 L 171.5 90 L 179.5 90 L 180.5 89 Z M 165 105 L 165 120 L 180 120 L 180 105 L 165 105 Z M 195 105 L 195 120 L 210 120 L 210 105 L 195 105 Z M 150 120 L 150 135 L 165 135 L 165 120 L 150 120 Z M 180 120 L 180 135 L 195 135 L 195 120 L 180 120 Z M 165 135 L 165 150 L 180 150 L 180 135 L 165 135 Z M 195 135 L 195 150 L 210 150 L 210 135 L 195 135 Z M 180 150 L 180 165 L 195 165 L 195 150 L 180 150 Z " /><path fill="rgb(238,238,238)" stroke="rgb(238,238,238)" stroke-width="1" opacity="1" d="M 0 105 L 12.5 105 L 13 107.5 L 13.5 109 L 12 108.5 L 8 120 L 0 120 L 0 105 Z " /><path fill="rgb(238,238,238)" stroke="rgb(238,238,238)" stroke-width="1" opacity="1" d="M 352.5 120 L 360 120 L 360 135 L 356 133.5 L 353.5 124 L 352 124.5 L 353 121.5 L 352.5 120 Z " /><path fill="rgb(238,238,238)" stroke="rgb(238,238,238)" stroke-width="1" opacity="1" d="M 0 135 Q 4.1 133.3 3 137.5 L 0.5 148 L 0 135 Z " /><path fill="rgb(238,238,238)" stroke="rgb(238,238,238)" stroke-width="1" opacity="1" d="M 359.5 212 L 360 225 Q 355.9 226.7 357 222.5 L 359.5 212 Z " /><path fill="rgb(238,238,238)" stroke="rgb(238,238,238)" stroke-width="1" opacity="1" d="M 0 225 L 4 226.5 L 6.5 236 L 8 235.5 L 7 240 L 0 240 L 0 225 Z " /><path fill="rgb(238,238,238)" stroke="rgb(238,238,238)" stroke-width="1" opacity="1" d="M 180 236 Q 185.8 237.9 195 237 L 195.5 240 L 210 240 L 210 255 L 225 255 L 225 246.5 L 227.5 246 L 229.5 247 L 231 246.5 L 230.5 248 L 232.5 247 L 232.5 249 L 234.5 248 L 234.5 250 L 236.5 249 L 236.5 251 L 240 253.5 Q 239.1 256.5 243.5 255 L 245.5 256 L 247 255.5 Q 244.8 256.8 247.5 258 L 255 263.5 L 255 270 L 262.5 270 L 270 277.5 L 270 285 L 276.5 285 L 277 286.5 Q 281.6 289.9 283 296.5 Q 278.8 298.7 280.5 301 L 279.5 300 L 270 300 Q 271.8 306.1 268.5 308 L 263 311.5 L 263.5 313 L 261.5 312 L 244 321.5 L 244.5 323 L 241.5 322 L 240 322.5 L 240 315 L 225 315 L 225 328.5 L 221.5 329 L 220.5 330 L 210 330 Q 211.1 332.7 208.5 332 L 201.5 334 L 195 334 L 194.5 330 L 180 330 L 180 335 L 166.5 335 Q 164 333.8 165 330 L 150.5 330 Q 151.5 333 146.5 332 L 141.5 331 L 140 331.5 L 141.5 330 L 150 330 L 150 315 L 135 315 L 134.5 329 L 122.5 325 L 121 325.5 L 121.5 324 L 120 323.5 L 120 315 L 105.5 315 L 103.5 316 L 103.5 315 L 105 314.5 L 105 300 L 90 300 L 90 306.5 L 88.5 306 L 82.5 302 L 81 302.5 L 81.5 300 L 90 300 L 90 285 L 84 284.5 L 89.5 278 L 90 285 L 105 285 L 105 270 L 97 269.5 L 97.5 267 Q 99 269.5 100.5 266 L 104.5 263 L 105 270 L 120 270 L 120 255 L 116 254.5 L 120 253 L 120.5 255 L 135 255 L 135 245.5 L 136.5 244 L 149.5 240 L 150 255 L 165 255 L 165 240 L 153 239.5 L 165 237 L 165.5 240 L 180 240 L 180 236 Z M 180 240 L 180 255 L 195 255 L 195 240 L 180 240 Z M 135 255 L 135 270 L 150 270 L 150 255 L 135 255 Z M 165 255 L 165 270 L 180 270 L 180 255 L 165 255 Z M 195 255 L 195 270 L 210 270 L 210 255 L 195 255 Z M 225 255 L 225 270 L 240 270 L 240 255 L 225 255 Z M 120 270 L 120 285 L 135 285 L 135 270 L 120 270 Z M 150 270 L 150 285 L 165 285 L 165 270 L 150 270 Z M 180 270 L 180 285 L 195 285 L 195 270 L 180 270 Z M 210 270 L 210 285 L 225 285 L 225 270 L 210 270 Z M 240 270 L 240 285 L 255 285 L 255 270 L 240 270 Z M 105 285 L 105 300 L 120 300 L 120 285 L 105 285 Z M 135 285 L 135 300 L 150 300 L 150 285 L 135 285 Z M 165 285 L 165 300 L 180 300 L 180 285 L 165 285 Z M 195 285 L 195 300 L 210 300 L 210 285 L 195 285 Z M 225 285 L 225 300 L 240 300 L 240 285 L 225 285 Z M 255 285 L 255 300 L 270 300 L 270 285 L 255 285 Z M 120 300 L 120 315 L 135 315 L 135 300 L 120 300 Z M 150 300 L 150 315 L 165 315 L 165 300 L 150 300 Z M 180 300 L 180 315 L 195 315 L 195 300 L 180 300 Z M 210 300 L 210 315 L 225 315 L 225 300 L 210 300 Z M 240 300 L 240 315 L 255 315 L 255 300 L 240 300 Z M 165 315 L 165 330 L 180 330 L 180 315 L 165 315 Z M 195 315 L 195 330 L 210 330 L 210 315 L 195 315 Z " /><path fill="rgb(238,238,238)" stroke="rgb(238,238,238)" stroke-width="1" opacity="1" d="M 352 240 L 360 240 L 360 255 L 347.5 255 L 347 252.5 L 352 240 Z " /><path fill="rgb(238,238,238)" stroke="rgb(238,238,238)" stroke-width="1" opacity="1" d="M 0 255 L 13.5 255 L 14 256.5 L 15 257.5 L 15 270 L 21.5 270 L 22.5 269 L 22 270.5 Q 30 287 42 299.5 L 30 300 L 30 315 L 45 315 L 45 303.5 L 46.5 302 Q 44.7 304.2 49 306.5 L 51 309.5 L 56.5 314 L 58 313.5 L 56.5 315 L 45 315 L 45 330 L 60 330 L 60.5 318 Q 73 330 89.5 338 L 91 337.5 L 90 338.5 L 90 345 L 102.5 345 L 105 346 L 105 360 L 90 360 L 90 345 L 75 345 L 75 360 L 60 360 L 60 345 L 45 345 L 45 360 L 30 360 L 30 345 L 15 345 L 15 360 L 0 360 L 0 345 L 15 345 L 15 330 L 0 330 L 0 315 L 15 315 L 15 300 L 0 300 L 0 285 L 15 285 L 15 270 L 0 270 L 0 255 Z M 15 285 L 15 300 L 30 300 L 30 285 L 15 285 Z M 15 315 L 15 330 L 30 330 L 30 315 L 15 315 Z M 30 330 L 30 345 L 45 345 L 45 330 L 30 330 Z M 60 330 L 60 345 L 75 345 L 75 330 L 60 330 Z " /><path fill="rgb(238,238,238)" stroke="rgb(238,238,238)" stroke-width="1" opacity="1" d="M 344.5 259 L 345 270 L 360 270 L 360 285 L 345 285 L 345 300 L 360 300 L 360 315 L 345 315 L 345 330 L 360 330 L 360 345 L 345 345 L 345 360 L 330 360 L 330 345 L 315 345 L 315 360 L 300 360 L 300 345 L 285 345 L 285 360 L 270 360 L 270 345 L 259.5 345 L 259.5 344 L 269.5 339 L 270 345 L 285 345 L 285 330 L 300 330 L 300 317.5 L 302.5 315 L 315 315 L 315 302.5 L 317.5 300 L 330 300 L 330 285.5 L 329.5 284 L 330.5 285 L 345 285 L 345 270 L 339.5 270 L 340 268.5 L 344.5 259 Z M 330 300 L 330 315 L 345 315 L 345 300 L 330 300 Z M 315 315 L 315 330 L 330 330 L 330 315 L 315 315 Z M 300 330 L 300 345 L 315 345 L 315 330 L 300 330 Z M 330 330 L 330 345 L 345 345 L 345 330 L 330 330 Z " /><path fill="rgb(238,238,238)" stroke="rgb(238,238,238)" stroke-width="1" opacity="1" d="M 312.5 303 L 310.5 306 L 312.5 303 Z " /><path fill="rgb(238,238,238)" stroke="rgb(238,238,238)" stroke-width="1" opacity="1" d="M 305.5 310 L 303.5 313 L 305.5 310 Z " /><path fill="rgb(238,238,238)" stroke="rgb(238,238,238)" stroke-width="1" opacity="1" d="M 251.5 346 L 255 347 L 255 360 L 240 360 L 240 352.5 L 241.5 352 L 252 347.5 L 251.5 346 Z " /><path fill="rgb(238,238,238)" stroke="rgb(238,238,238)" stroke-width="1" opacity="1" d="M 120.5 352 L 123.5 353 L 125 352.5 L 124.5 354 L 133.5 356 L 135 357.5 L 134.5 360 L 120 360 L 120.5 352 Z " /><path fill="rgb(238,238,238)" stroke="rgb(238,238,238)" stroke-width="1" opacity="1" d="M 222.5 357 Q 226.7 355.9 225 360 L 212 359.5 L 222.5 357 Z " /><path fill="rgb(135,135,135)" stroke="rgb(135,135,135)" stroke-width="1" opacity="1" d="M 200.5 0 L 203 0.5 L 200.5 1 L 200.5 0 Z " /><path fill="rgb(135,135,135)" stroke="rgb(135,135,135)" stroke-width="1" opacity="1" d="M 150.5 1 L 153 1.5 L 150.5 2 L 150.5 1 Z " /><path fill="rgb(135,135,135)" stroke="rgb(135,135,135)" stroke-width="1" opacity="1" d="M 163.5 22 L 167 22.5 L 163.5 23 L 163.5 22 Z " /><path fill="rgb(135,135,135)" stroke="rgb(135,135,135)" stroke-width="1" opacity="1" d="M 193.5 22 L 197 22.5 L 193.5 23 L 193.5 22 Z " /><path fill="rgb(135,135,135)" stroke="rgb(135,135,135)" stroke-width="1" opacity="1" d="M 280.5 29 L 281.5 31 L 280.5 29 Z " /><path fill="rgb(135,135,135)" stroke="rgb(135,135,135)" stroke-width="1" opacity="1" d="M 72.5 34 L 71.5 36 L 72.5 34 Z " /><path fill="rgb(135,135,135)" stroke="rgb(135,135,135)" stroke-width="1" opacity="1" d="M 287.5 34 L 288.5 36 L 287.5 34 Z " /><path fill="rgb(135,135,135)" stroke="rgb(135,135,135)" stroke-width="1" opacity="1" d="M 291.5 37 L 292.5 39 L 291.5 37 Z " /><path fill="rgb(135,135,135)" stroke="rgb(135,135,135)" stroke-width="1" opacity="1" d="M 62.5 42 L 60.5 45 L 62.5 42 Z " /><path fill="rgb(135,135,135)" stroke="rgb(135,135,135)" stroke-width="1" opacity="1" d="M 297.5 42 L 299.5 45 L 297.5 42 Z " /><path fill="rgb(135,135,135)" stroke="rgb(135,135,135)" stroke-width="1" opacity="1" d="M 272.5 51 L 273.5 53 L 272.5 51 Z " /><path fill="rgb(135,135,135)" stroke="rgb(135,135,135)" stroke-width="1" opacity="1" d="M 83.5 54 L 82.5 56 L 83.5 54 Z " /><path fill="rgb(135,135,135)" stroke="rgb(135,135,135)" stroke-width="1" opacity="1" d="M 276.5 54 L 277.5 56 L 276.5 54 Z " /><path fill="rgb(135,135,135)" stroke="rgb(135,135,135)" stroke-width="1" opacity="1" d="M 78.5 58 L 76.5 61 L 78.5 58 Z " /><path fill="rgb(135,135,135)" stroke="rgb(135,135,135)" stroke-width="1" opacity="1" d="M 281.5 58 L 282.5 60 L 281.5 58 Z " /><path fill="rgb(135,135,135)" stroke="rgb(135,135,135)" stroke-width="1" opacity="1" d="M 44.5 60 L 42.5 63 L 44.5 60 Z " /><path fill="rgb(135,135,135)" stroke="rgb(135,135,135)" stroke-width="1" opacity="1" d="M 315.5 60 L 317.5 63 L 315.5 60 Z " /><path fill="rgb(135,135,135)" stroke="rgb(135,135,135)" stroke-width="1" opacity="1" d="M 172.5 65 L 175 65.5 L 172.5 66 L 172.5 65 Z " /><path fill="rgb(135,135,135)" stroke="rgb(135,135,135)" stroke-width="1" opacity="1" d="M 182.5 65 L 188 65.5 L 182.5 66 L 182.5 65 Z " /><path fill="rgb(135,135,135)" stroke="rgb(135,135,135)" stroke-width="1" opacity="1" d="M 321.5 67 L 322.5 69 L 321.5 67 Z " /><path fill="rgb(135,135,135)" stroke="rgb(135,135,135)" stroke-width="1" opacity="1" d="M 35.5 71 L 34.5 73 L 35.5 71 Z " /><path fill="rgb(135,135,135)" stroke="rgb(135,135,135)" stroke-width="1" opacity="1" d="M 324.5 71 L 325.5 73 L 324.5 71 Z " /><path fill="rgb(135,135,135)" stroke="rgb(135,135,135)" stroke-width="1" opacity="1" d="M 215.5 75 L 216.5 77 L 215.5 75 Z " /><path fill="rgb(135,135,135)" stroke="rgb(135,135,135)" stroke-width="1" opacity="1" d="M 60.5 76 L 58.5 79 L 60.5 76 Z " /><path fill="rgb(135,135,135)" stroke="rgb(135,135,135)" stroke-width="1" opacity="1" d="M 300.5 77 L 301.5 79 L 300.5 77 Z " /><path fill="rgb(135,135,135)" stroke="rgb(135,135,135)" stroke-width="1" opacity="1" d="M 140.5 78 L 139.5 80 L 140.5 78 Z " /><path fill="rgb(135,135,135)" stroke="rgb(135,135,135)" stroke-width="1" opacity="1" d="M 329.5 78 L 330.5 80 L 329.5 78 Z " /><path fill="rgb(135,135,135)" stroke="rgb(135,135,135)" stroke-width="1" opacity="1" d="M 55.5 82 L 54.5 84 L 55.5 82 Z " /><path fill="rgb(135,135,135)" stroke="rgb(135,135,135)" stroke-width="1" opacity="1" d="M 304.5 82 L 305.5 84 L 304.5 82 Z " /><path fill="rgb(135,135,135)" stroke="rgb(135,135,135)" stroke-width="1" opacity="1" d="M 134.5 83 L 132.5 86 L 134.5 83 Z " /><path fill="rgb(135,135,135)" stroke="rgb(135,135,135)" stroke-width="1" opacity="1" d="M 307.5 86 L 308.5 88 L 307.5 86 Z " /><path fill="rgb(135,135,135)" stroke="rgb(135,135,135)" stroke-width="1" opacity="1" d="M 128.5 90 L 127.5 92 L 128.5 90 Z " /><path fill="rgb(135,135,135)" stroke="rgb(135,135,135)" stroke-width="1" opacity="1" d="M 231.5 90 L 232.5 92 L 231.5 90 Z " /><path fill="rgb(135,135,135)" stroke="rgb(135,135,135)" stroke-width="1" opacity="1" d="M 151.5 98 L 148.5 102 L 151.5 98 Z " /><path fill="rgb(135,135,135)" stroke="rgb(135,135,135)" stroke-width="1" opacity="1" d="M 208.5 98 L 211.5 102 L 208.5 98 Z " /><path fill="rgb(135,135,135)" stroke="rgb(135,135,135)" stroke-width="1" opacity="1" d="M 145.5 105 L 144.5 107 L 145.5 105 Z " /><path fill="rgb(135,135,135)" stroke="rgb(135,135,135)" stroke-width="1" opacity="1" d="M 214.5 105 L 215.5 107 L 214.5 105 Z " /><path fill="rgb(135,135,135)" stroke="rgb(135,135,135)" stroke-width="1" opacity="1" d="M 115.5 119 L 116 121.5 L 115 121.5 L 115.5 119 Z " /><path fill="rgb(135,135,135)" stroke="rgb(135,135,135)" stroke-width="1" opacity="1" d="M 244.5 119 L 245 121.5 L 244 121.5 L 244.5 119 Z " /><path fill="rgb(135,135,135)" stroke="rgb(135,135,135)" stroke-width="1" opacity="1" d="M 137.5 125 L 138 127.5 L 137 127.5 L 137.5 125 Z " /><path fill="rgb(135,135,135)" stroke="rgb(135,135,135)" stroke-width="1" opacity="1" d="M 222.5 125 L 223 127.5 L 222 127.5 L 222.5 125 Z " /><path fill="rgb(135,135,135)" stroke="rgb(135,135,135)" stroke-width="1" opacity="1" d="M 137.5 133 L 138 135.5 L 137 135.5 L 137.5 133 Z " /><path fill="rgb(135,135,135)" stroke="rgb(135,135,135)" stroke-width="1" opacity="1" d="M 222.5 133 L 223 135.5 L 222 135.5 L 222.5 133 Z " /><path fill="rgb(135,135,135)" stroke="rgb(135,135,135)" stroke-width="1" opacity="1" d="M 115.5 139 L 116 141.5 L 115 141.5 L 115.5 139 Z " /><path fill="rgb(135,135,135)" stroke="rgb(135,135,135)" stroke-width="1" opacity="1" d="M 244.5 139 L 245 141.5 L 244 141.5 L 244.5 139 Z " /><path fill="rgb(135,135,135)" stroke="rgb(135,135,135)" stroke-width="1" opacity="1" d="M 1.5 150 L 2 152.5 L 1 152.5 L 1.5 150 Z " /><path fill="rgb(135,135,135)" stroke="rgb(135,135,135)" stroke-width="1" opacity="1" d="M 144.5 154 L 145.5 156 L 144.5 154 Z " /><path fill="rgb(135,135,135)" stroke="rgb(135,135,135)" stroke-width="1" opacity="1" d="M 215.5 154 L 214.5 156 L 215.5 154 Z " /><path fill="rgb(135,135,135)" stroke="rgb(135,135,135)" stroke-width="1" opacity="1" d="M 359.5 157 L 360 159.5 L 359 159.5 L 359.5 157 Z " /><path fill="rgb(135,135,135)" stroke="rgb(135,135,135)" stroke-width="1" opacity="1" d="M 148.5 159 L 151.5 163 L 148.5 159 Z " /><path fill="rgb(135,135,135)" stroke="rgb(135,135,135)" stroke-width="1" opacity="1" d="M 211.5 159 L 208.5 163 L 211.5 159 Z " /><path fill="rgb(135,135,135)" stroke="rgb(135,135,135)" stroke-width="1" opacity="1" d="M 22.5 163 L 23 166.5 L 22 166.5 L 22.5 163 Z " /><path fill="rgb(135,135,135)" stroke="rgb(135,135,135)" stroke-width="1" opacity="1" d="M 337.5 163 L 338 166.5 L 337 166.5 L 337.5 163 Z " /><path fill="rgb(135,135,135)" stroke="rgb(135,135,135)" stroke-width="1" opacity="1" d="M 127.5 169 L 128.5 171 L 127.5 169 Z " /><path fill="rgb(135,135,135)" stroke="rgb(135,135,135)" stroke-width="1" opacity="1" d="M 232.5 169 L 231.5 171 L 232.5 169 Z " /><path fill="rgb(135,135,135)" stroke="rgb(135,135,135)" stroke-width="1" opacity="1" d="M 132.5 175 L 134.5 178 L 132.5 175 Z " /><path fill="rgb(135,135,135)" stroke="rgb(135,135,135)" stroke-width="1" opacity="1" d="M 220.5 181 L 219.5 183 L 220.5 181 Z " /><path fill="rgb(135,135,135)" stroke="rgb(135,135,135)" stroke-width="1" opacity="1" d="M 22.5 193 L 23 196.5 L 22 196.5 L 22.5 193 Z " /><path fill="rgb(135,135,135)" stroke="rgb(135,135,135)" stroke-width="1" opacity="1" d="M 337.5 193 L 338 196.5 L 337 196.5 L 337.5 193 Z " /><path fill="rgb(135,135,135)" stroke="rgb(135,135,135)" stroke-width="1" opacity="1" d="M 173.5 195 L 177 195.5 L 173.5 196 L 173.5 195 Z " /><path fill="rgb(135,135,135)" stroke="rgb(135,135,135)" stroke-width="1" opacity="1" d="M 184.5 195 L 187 195.5 L 184.5 196 L 184.5 195 Z " /><path fill="rgb(135,135,135)" stroke="rgb(135,135,135)" stroke-width="1" opacity="1" d="M 0.5 200 L 1 202.5 L 0 202.5 L 0.5 200 Z " /><path fill="rgb(135,135,135)" stroke="rgb(135,135,135)" stroke-width="1" opacity="1" d="M 358.5 207 L 359 209.5 L 358 209.5 L 358.5 207 Z " /><path fill="rgb(135,135,135)" stroke="rgb(135,135,135)" stroke-width="1" opacity="1" d="M 168.5 212 L 175 212.5 L 168.5 213 L 168.5 212 Z " /><path fill="rgb(135,135,135)" stroke="rgb(135,135,135)" stroke-width="1" opacity="1" d="M 185.5 212 L 192 212.5 L 185.5 213 L 185.5 212 Z " /><path fill="rgb(135,135,135)" stroke="rgb(135,135,135)" stroke-width="1" opacity="1" d="M 159.5 213 L 162 213.5 L 159.5 214 L 159.5 213 Z " /><path fill="rgb(135,135,135)" stroke="rgb(135,135,135)" stroke-width="1" opacity="1" d="M 165.5 235 L 168 235.5 L 165.5 236 L 165.5 235 Z " /><path fill="rgb(135,135,135)" stroke="rgb(135,135,135)" stroke-width="1" opacity="1" d="M 99.5 236 L 98.5 238 L 99.5 236 Z " /><path fill="rgb(135,135,135)" stroke="rgb(135,135,135)" stroke-width="1" opacity="1" d="M 158.5 236 L 161 236.5 L 158.5 237 L 158.5 236 Z " /><path fill="rgb(135,135,135)" stroke="rgb(135,135,135)" stroke-width="1" opacity="1" d="M 266.5 241 L 267.5 243 L 266.5 241 Z " /><path fill="rgb(135,135,135)" stroke="rgb(135,135,135)" stroke-width="1" opacity="1" d="M 271.5 245 L 272.5 247 L 271.5 245 Z " /><path fill="rgb(135,135,135)" stroke="rgb(135,135,135)" stroke-width="1" opacity="1" d="M 86.5 246 L 84.5 249 L 86.5 246 Z " /><path fill="rgb(135,135,135)" stroke="rgb(135,135,135)" stroke-width="1" opacity="1" d="M 279.5 252 L 284.5 258 L 279.5 252 Z " /><path fill="rgb(135,135,135)" stroke="rgb(135,135,135)" stroke-width="1" opacity="1" d="M 107.5 258 L 106.5 260 L 107.5 258 Z " /><path fill="rgb(135,135,135)" stroke="rgb(135,135,135)" stroke-width="1" opacity="1" d="M 251.5 258 L 252.5 260 L 251.5 258 Z " /><path fill="rgb(135,135,135)" stroke="rgb(135,135,135)" stroke-width="1" opacity="1" d="M 71.5 261 L 69.5 264 L 71.5 261 Z " /><path fill="rgb(135,135,135)" stroke="rgb(135,135,135)" stroke-width="1" opacity="1" d="M 255.5 261 L 256.5 263 L 255.5 261 Z " /><path fill="rgb(135,135,135)" stroke="rgb(135,135,135)" stroke-width="1" opacity="1" d="M 102.5 262 L 100.5 265 L 102.5 262 Z " /><path fill="rgb(135,135,135)" stroke="rgb(135,135,135)" stroke-width="1" opacity="1" d="M 290.5 264 L 292.5 267 L 290.5 264 Z " /><path fill="rgb(135,135,135)" stroke="rgb(135,135,135)" stroke-width="1" opacity="1" d="M 66.5 267 L 65.5 269 L 66.5 267 Z " /><path fill="rgb(135,135,135)" stroke="rgb(135,135,135)" stroke-width="1" opacity="1" d="M 262.5 267 L 270.5 276 L 262.5 267 Z " /><path fill="rgb(135,135,135)" stroke="rgb(135,135,135)" stroke-width="1" opacity="1" d="M 295.5 270 L 296.5 272 L 295.5 270 Z " /><path fill="rgb(135,135,135)" stroke="rgb(135,135,135)" stroke-width="1" opacity="1" d="M 63.5 271 L 62.5 273 L 63.5 271 Z " /><path fill="rgb(135,135,135)" stroke="rgb(135,135,135)" stroke-width="1" opacity="1" d="M 51.5 272 L 52.5 274 L 51.5 272 Z " /><path fill="rgb(135,135,135)" stroke="rgb(135,135,135)" stroke-width="1" opacity="1" d="M 308.5 272 L 307.5 274 L 308.5 272 Z " /><path fill="rgb(135,135,135)" stroke="rgb(135,135,135)" stroke-width="1" opacity="1" d="M 54.5 276 L 55.5 278 L 54.5 276 Z " /><path fill="rgb(135,135,135)" stroke="rgb(135,135,135)" stroke-width="1" opacity="1" d="M 305.5 276 L 304.5 278 L 305.5 276 Z " /><path fill="rgb(135,135,135)" stroke="rgb(135,135,135)" stroke-width="1" opacity="1" d="M 87.5 277 L 86.5 279 L 87.5 277 Z " /><path fill="rgb(135,135,135)" stroke="rgb(135,135,135)" stroke-width="1" opacity="1" d="M 29.5 280 L 30.5 282 L 29.5 280 Z " /><path fill="rgb(135,135,135)" stroke="rgb(135,135,135)" stroke-width="1" opacity="1" d="M 274.5 280 L 276.5 283 L 274.5 280 Z " /><path fill="rgb(135,135,135)" stroke="rgb(135,135,135)" stroke-width="1" opacity="1" d="M 34.5 287 L 35.5 289 L 34.5 287 Z " /><path fill="rgb(135,135,135)" stroke="rgb(135,135,135)" stroke-width="1" opacity="1" d="M 325.5 287 L 324.5 289 L 325.5 287 Z " /><path fill="rgb(135,135,135)" stroke="rgb(135,135,135)" stroke-width="1" opacity="1" d="M 37.5 291 L 38.5 293 L 37.5 291 Z " /><path fill="rgb(135,135,135)" stroke="rgb(135,135,135)" stroke-width="1" opacity="1" d="M 285.5 295 L 286 296.5 L 283 298.5 L 285.5 295 Z " /><path fill="rgb(135,135,135)" stroke="rgb(135,135,135)" stroke-width="1" opacity="1" d="M 42.5 297 L 44.5 300 L 42.5 297 Z " /><path fill="rgb(135,135,135)" stroke="rgb(135,135,135)" stroke-width="1" opacity="1" d="M 317.5 297 L 315.5 300 L 317.5 297 Z " /><path fill="rgb(135,135,135)" stroke="rgb(135,135,135)" stroke-width="1" opacity="1" d="M 77.5 299 L 79.5 302 L 77.5 299 Z " /><path fill="rgb(135,135,135)" stroke="rgb(135,135,135)" stroke-width="1" opacity="1" d="M 83.5 304 L 84.5 306 L 83.5 304 Z " /><path fill="rgb(135,135,135)" stroke="rgb(135,135,135)" stroke-width="1" opacity="1" d="M 60.5 315 L 62.5 318 L 60.5 315 Z " /><path fill="rgb(135,135,135)" stroke="rgb(135,135,135)" stroke-width="1" opacity="1" d="M 299.5 315 L 297.5 318 L 299.5 315 Z " /><path fill="rgb(135,135,135)" stroke="rgb(135,135,135)" stroke-width="1" opacity="1" d="M 67.5 321 L 68.5 323 L 67.5 321 Z " /><path fill="rgb(135,135,135)" stroke="rgb(135,135,135)" stroke-width="1" opacity="1" d="M 71.5 324 L 72.5 326 L 71.5 324 Z " /><path fill="rgb(135,135,135)" stroke="rgb(135,135,135)" stroke-width="1" opacity="1" d="M 288.5 324 L 287.5 326 L 288.5 324 Z " /><path fill="rgb(135,135,135)" stroke="rgb(135,135,135)" stroke-width="1" opacity="1" d="M 78.5 329 L 79.5 331 L 78.5 329 Z " /><path fill="rgb(135,135,135)" stroke="rgb(135,135,135)" stroke-width="1" opacity="1" d="M 158.5 335 L 161 335.5 L 158.5 336 L 158.5 335 Z " /><path fill="rgb(135,135,135)" stroke="rgb(135,135,135)" stroke-width="1" opacity="1" d="M 198.5 335 L 201 335.5 L 198.5 336 L 198.5 335 Z " /><path fill="rgb(135,135,135)" stroke="rgb(135,135,135)" stroke-width="1" opacity="1" d="M 169.5 336 L 175 336.5 L 169.5 337 L 169.5 336 Z " /><path fill="rgb(135,135,135)" stroke="rgb(135,135,135)" stroke-width="1" opacity="1" d="M 185.5 336 L 191 336.5 L 185.5 337 L 185.5 336 Z " /><path fill="rgb(135,135,135)" stroke="rgb(135,135,135)" stroke-width="1" opacity="1" d="M 207.5 358 L 210 358.5 L 207.5 359 L 207.5 358 Z " /><path fill="rgb(135,135,135)" stroke="rgb(135,135,135)" stroke-width="1" opacity="1" d="M 157.5 359 L 160 359.5 L 157.5 360 L 157.5 359 Z " /><path fill="rgb(48,48,48)" stroke="rgb(48,48,48)" stroke-width="1" opacity="1" d="M 173.5 21 L 187 21.5 L 173.5 22 L 173.5 21 Z " /><path fill="rgb(48,48,48)" stroke="rgb(48,48,48)" stroke-width="1" opacity="1" d="M 66.5 39 L 65.5 41 L 66.5 39 Z " /><path fill="rgb(48,48,48)" stroke="rgb(48,48,48)" stroke-width="1" opacity="1" d="M 293.5 39 L 294.5 41 L 293.5 39 Z " /><path fill="rgb(48,48,48)" stroke="rgb(48,48,48)" stroke-width="1" opacity="1" d="M 59.5 45 L 57.5 48 L 59.5 45 Z " /><path fill="rgb(48,48,48)" stroke="rgb(48,48,48)" stroke-width="1" opacity="1" d="M 300.5 45 L 302.5 48 L 300.5 45 Z " /><path fill="rgb(48,48,48)" stroke="rgb(48,48,48)" stroke-width="1" opacity="1" d="M 47.5 57 L 45.5 60 L 47.5 57 Z " /><path fill="rgb(48,48,48)" stroke="rgb(48,48,48)" stroke-width="1" opacity="1" d="M 312.5 57 L 314.5 60 L 312.5 57 Z " /><path fill="rgb(48,48,48)" stroke="rgb(48,48,48)" stroke-width="1" opacity="1" d="M 72.5 63 L 63.5 73 L 72.5 63 Z " /><path fill="rgb(48,48,48)" stroke="rgb(48,48,48)" stroke-width="1" opacity="1" d="M 287.5 63 L 296.5 73 L 287.5 63 Z " /><path fill="rgb(48,48,48)" stroke="rgb(48,48,48)" stroke-width="1" opacity="1" d="M 40.5 65 L 39.5 67 L 40.5 65 Z " /><path fill="rgb(48,48,48)" stroke="rgb(48,48,48)" stroke-width="1" opacity="1" d="M 178.5 65 L 182 65.5 L 178.5 66 L 178.5 65 Z " /><path fill="rgb(48,48,48)" stroke="rgb(48,48,48)" stroke-width="1" opacity="1" d="M 319.5 65 L 320.5 67 L 319.5 65 Z " /><path fill="rgb(48,48,48)" stroke="rgb(48,48,48)" stroke-width="1" opacity="1" d="M 220.5 79 L 221.5 81 L 220.5 79 Z " /><path fill="rgb(48,48,48)" stroke="rgb(48,48,48)" stroke-width="1" opacity="1" d="M 176.5 87 L 184 87.5 L 176.5 88 L 176.5 87 Z " /><path fill="rgb(48,48,48)" stroke="rgb(48,48,48)" stroke-width="1" opacity="1" d="M 130.5 88 L 129.5 90 L 130.5 88 Z " /><path fill="rgb(48,48,48)" stroke="rgb(48,48,48)" stroke-width="1" opacity="1" d="M 229.5 88 L 230.5 90 L 229.5 88 Z " /><path fill="rgb(48,48,48)" stroke="rgb(48,48,48)" stroke-width="1" opacity="1" d="M 147.5 102 L 146.5 104 L 147.5 102 Z " /><path fill="rgb(48,48,48)" stroke="rgb(48,48,48)" stroke-width="1" opacity="1" d="M 212.5 102 L 213.5 104 L 212.5 102 Z " /><path fill="rgb(48,48,48)" stroke="rgb(48,48,48)" stroke-width="1" opacity="1" d="M 146.5 157 L 147.5 159 L 146.5 157 Z " /><path fill="rgb(48,48,48)" stroke="rgb(48,48,48)" stroke-width="1" opacity="1" d="M 213.5 157 L 212.5 159 L 213.5 157 Z " /><path fill="rgb(48,48,48)" stroke="rgb(48,48,48)" stroke-width="1" opacity="1" d="M 230.5 171 L 229.5 173 L 230.5 171 Z " /><path fill="rgb(48,48,48)" stroke="rgb(48,48,48)" stroke-width="1" opacity="1" d="M 21.5 173 L 22 186.5 L 21 186.5 L 21.5 173 Z " /><path fill="rgb(48,48,48)" stroke="rgb(48,48,48)" stroke-width="1" opacity="1" d="M 177.5 173 L 183 173.5 L 177.5 174 L 177.5 173 Z " /><path fill="rgb(48,48,48)" stroke="rgb(48,48,48)" stroke-width="1" opacity="1" d="M 338.5 173 L 339 186.5 L 338 186.5 L 338.5 173 Z " /><path fill="rgb(48,48,48)" stroke="rgb(48,48,48)" stroke-width="1" opacity="1" d="M 138.5 180 L 139.5 182 L 138.5 180 Z " /><path fill="rgb(48,48,48)" stroke="rgb(48,48,48)" stroke-width="1" opacity="1" d="M 177.5 195 L 184 195.5 L 177.5 196 L 177.5 195 Z " /><path fill="rgb(48,48,48)" stroke="rgb(48,48,48)" stroke-width="1" opacity="1" d="M 175.5 212 L 185 212.5 L 175.5 213 L 175.5 212 Z " /><path fill="rgb(48,48,48)" stroke="rgb(48,48,48)" stroke-width="1" opacity="1" d="M 175.5 234 L 185 234.5 L 175.5 235 L 175.5 234 Z " /><path fill="rgb(48,48,48)" stroke="rgb(48,48,48)" stroke-width="1" opacity="1" d="M 194.5 235 L 197 235.5 L 194.5 236 L 194.5 235 Z " /><path fill="rgb(48,48,48)" stroke="rgb(48,48,48)" stroke-width="1" opacity="1" d="M 90.5 243 L 89.5 245 L 90.5 243 Z " /><path fill="rgb(48,48,48)" stroke="rgb(48,48,48)" stroke-width="1" opacity="1" d="M 273.5 247 L 274.5 249 L 273.5 247 Z " /><path fill="rgb(48,48,48)" stroke="rgb(48,48,48)" stroke-width="1" opacity="1" d="M 83.5 249 L 81.5 252 L 83.5 249 Z " /><path fill="rgb(48,48,48)" stroke="rgb(48,48,48)" stroke-width="1" opacity="1" d="M 75.5 257 L 72.5 261 L 75.5 257 Z " /><path fill="rgb(48,48,48)" stroke="rgb(48,48,48)" stroke-width="1" opacity="1" d="M 288.5 262 L 289.5 264 L 288.5 262 Z " /><path fill="rgb(48,48,48)" stroke="rgb(48,48,48)" stroke-width="1" opacity="1" d="M 259.5 264 L 261.5 267 L 259.5 264 Z " /><path fill="rgb(48,48,48)" stroke="rgb(48,48,48)" stroke-width="1" opacity="1" d="M 97.5 266 L 90.5 274 L 97.5 266 Z " /><path fill="rgb(48,48,48)" stroke="rgb(48,48,48)" stroke-width="1" opacity="1" d="M 271.5 276 L 272.5 278 L 271.5 276 Z " /><path fill="rgb(48,48,48)" stroke="rgb(48,48,48)" stroke-width="1" opacity="1" d="M 85.5 279 L 84.5 281 L 85.5 279 Z " /><path fill="rgb(48,48,48)" stroke="rgb(48,48,48)" stroke-width="1" opacity="1" d="M 279.5 286 L 280.5 288 L 279.5 286 Z " /><path fill="rgb(48,48,48)" stroke="rgb(48,48,48)" stroke-width="1" opacity="1" d="M 39.5 293 L 40.5 295 L 39.5 293 Z " /><path fill="rgb(48,48,48)" stroke="rgb(48,48,48)" stroke-width="1" opacity="1" d="M 320.5 293 L 319.5 295 L 320.5 293 Z " /><path fill="rgb(48,48,48)" stroke="rgb(48,48,48)" stroke-width="1" opacity="1" d="M 282.5 299 L 281.5 301 L 282.5 299 Z " /><path fill="rgb(48,48,48)" stroke="rgb(48,48,48)" stroke-width="1" opacity="1" d="M 45.5 300 L 47.5 303 L 45.5 300 Z " /><path fill="rgb(48,48,48)" stroke="rgb(48,48,48)" stroke-width="1" opacity="1" d="M 314.5 300 L 312.5 303 L 314.5 300 Z " /><path fill="rgb(48,48,48)" stroke="rgb(48,48,48)" stroke-width="1" opacity="1" d="M 277.5 303 L 276.5 305 L 277.5 303 Z " /><path fill="rgb(48,48,48)" stroke="rgb(48,48,48)" stroke-width="1" opacity="1" d="M 57.5 312 L 59.5 315 L 57.5 312 Z " /><path fill="rgb(48,48,48)" stroke="rgb(48,48,48)" stroke-width="1" opacity="1" d="M 302.5 312 L 300.5 315 L 302.5 312 Z " /><path fill="rgb(48,48,48)" stroke="rgb(48,48,48)" stroke-width="1" opacity="1" d="M 65.5 319 L 66.5 321 L 65.5 319 Z " /><path fill="rgb(48,48,48)" stroke="rgb(48,48,48)" stroke-width="1" opacity="1" d="M 294.5 319 L 293.5 321 L 294.5 319 Z " /><path fill="rgb(48,48,48)" stroke="rgb(48,48,48)" stroke-width="1" opacity="1" d="M 166.5 336 L 169 336.5 L 166.5 337 L 166.5 336 Z " /><path fill="rgb(48,48,48)" stroke="rgb(48,48,48)" stroke-width="1" opacity="1" d="M 191.5 336 L 194 336.5 L 191.5 337 L 191.5 336 Z " /><path fill="rgb(0,0,0)" stroke="rgb(0,0,0)" stroke-width="1" opacity="1" d="M 162.5 0 L 197.5 0 Q 199.2 2.8 205.5 1 L 229.5 6 L 244.5 11 Q 285 27 312 56.5 Q 335.4 81.1 349 115.5 L 354 130.5 L 359 154.5 Q 357.3 160.8 360 162.5 L 360 197.5 L 359 198.5 L 357 217.5 L 347 249.5 Q 331.1 286.6 303.5 312 Q 278.9 335.4 244.5 349 L 229.5 354 L 205.5 359 Q 199.2 357.3 197.5 360 L 162.5 360 L 161.5 359 L 154.5 359 L 138.5 356 L 110.5 347 Q 73.4 331.1 48 303.5 Q 24.6 278.9 11 244.5 L 6 229.5 L 1 205.5 Q 2.8 199.2 0 197.5 L 0 162.5 L 1 161.5 L 3 142.5 L 13 110.5 Q 28.9 73.4 56.5 48 Q 79.3 26.3 110.5 13 L 130.5 6 L 162.5 0 Z M 174 21 L 173 22 L 162 22 L 161 23 L 149 24 L 120 33 Q 92 44 73 63 Q 50 83 36 113 Q 28 129 24 149 L 23 161 L 22 162 L 22 173 L 21 174 L 21 187 L 22 188 L 23 206 L 31 236 Q 40 260 56 279 Q 55 281 58 280 L 76 257 Q 95 236 123 224 L 143 217 L 165 213 L 196 213 L 217 217 Q 252 227 276 249 Q 290 262 301 279 Q 300 282 304 280 Q 318 262 328 239 L 336 212 L 337 200 L 338 199 L 338 188 L 339 187 L 339 174 L 338 173 L 337 155 L 329 125 Q 317 94 297 73 Q 274 47 241 33 L 212 24 L 200 23 L 199 22 L 188 22 L 187 21 L 174 21 Z M 176 234 L 175 235 L 164 235 L 149 238 L 132 244 Q 112 253 98 266 L 78 289 L 74 298 L 93 312 L 115 324 L 146 334 L 157 335 L 158 336 L 166 336 L 167 337 L 194 337 L 195 336 L 203 336 L 222 332 L 237 327 Q 266 316 286 297 L 273 278 Q 254 255 226 243 L 215 239 L 197 235 L 176 234 Z " /><path fill="rgb(0,0,0)" stroke="rgb(0,0,0)" stroke-width="1" opacity="1" d="M 169.5 66 L 190.5 66 L 204.5 70 Q 219.1 76.4 229 87.5 Q 238.6 97.9 243 113.5 L 245 124.5 L 245 136.5 L 243 147.5 L 238 160.5 Q 231.9 171.9 222.5 180 Q 212.6 188.6 198.5 193 L 190.5 195 L 169.5 195 Q 144 189.5 130 172.5 Q 121.2 162.3 117 147.5 L 115 136.5 L 115 124.5 L 117 113.5 L 122 100.5 Q 128.1 89.1 137.5 81 Q 149.8 69.8 169.5 66 Z M 177 87 L 165 90 L 153 97 Q 140 106 137 125 Q 136 135 138 142 L 146 158 L 157 167 L 171 173 Q 176 172 178 174 Q 197 174 208 164 Q 220 155 223 137 Q 224 126 222 120 L 214 104 Q 207 94 196 90 L 184 87 L 177 87 Z " /></svg>